<mxfile host="app.diagrams.net" modified="2021-03-02T18:50:24.992Z" agent="5.0 (Windows NT 10.0; Win64; x64) AppleWebKit/537.36 (KHTML, like Gecko) Chrome/88.0.4324.190 Safari/537.36" etag="U1TdmA_D3SaTCyGAZILD" version="14.4.3" type="github" pages="5">
  <diagram id="jfdRtlzlyhnuD6NAQDa8" name="DiagramaSecuencial">
    <mxGraphModel dx="1422" dy="794" grid="1" gridSize="10" guides="1" tooltips="1" connect="1" arrows="1" fold="1" page="1" pageScale="1" pageWidth="827" pageHeight="1169" math="0" shadow="0">
      <root>
        <mxCell id="1i9SZSVEu_LZFU1LX0aY-0" />
        <mxCell id="1i9SZSVEu_LZFU1LX0aY-1" parent="1i9SZSVEu_LZFU1LX0aY-0" />
        <mxCell id="J4JeL5MnVduHY62PvOEG-0" value="&lt;p class=&quot;MsoTitle&quot; style=&quot;text-align: justify&quot;&gt;&lt;span lang=&quot;ES&quot;&gt;&lt;b&gt;&lt;font style=&quot;font-size: 18px&quot;&gt;Planteamiento del problema&lt;/font&gt;&lt;/b&gt; &lt;/span&gt;&lt;font&gt;&lt;font style=&quot;font-size: 12px&quot;&gt;&lt;b&gt;&lt;span lang=&quot;ES&quot; style=&quot;color: rgb(46 , 116 , 181)&quot;&gt;(Algoritmo&amp;nbsp;secuencial)&lt;/span&gt;&lt;/b&gt;&lt;span lang=&quot;ES&quot;&gt;:&lt;/span&gt;&lt;/font&gt;&lt;font size=&quot;1&quot;&gt;&lt;span lang=&quot;ES&quot;&gt;&lt;/span&gt;&lt;/font&gt;&lt;/font&gt;&lt;/p&gt;&lt;p class=&quot;MsoNormal&quot;&gt;&lt;span&gt;&lt;font size=&quot;3&quot;&gt;Realiza un algoritmo y diagrama&amp;nbsp;de flujo para obtener el área de un triángulo, solicitar al usuario las&amp;nbsp;variables necesarias (E) realice la operación&amp;nbsp;con la formula requerida (P) y muestre el área&amp;nbsp;en pantalla (S).&lt;/font&gt;&lt;/span&gt;&lt;/p&gt;" style="text;whiteSpace=wrap;html=1;" parent="1i9SZSVEu_LZFU1LX0aY-1" vertex="1">
          <mxGeometry x="60" y="20" width="660" height="130" as="geometry" />
        </mxCell>
        <mxCell id="J4JeL5MnVduHY62PvOEG-3" value="&lt;font style=&quot;font-size: 14px&quot;&gt;&lt;b&gt;1.- INIICIO&lt;/b&gt;&lt;br&gt;&lt;b&gt;2.- &lt;/b&gt;Declarar variables area, base y altura como Real.&lt;br&gt;&lt;b&gt;3.- &lt;/b&gt;Solicitar al usuario base y altura [almacenar en variables]&lt;br&gt;&lt;b&gt;4.- &lt;/b&gt;area=(base*altura)/2;&lt;br&gt;&lt;b&gt;5.-&lt;/b&gt; mostrar area en pantalla.&lt;br&gt;&lt;b&gt;6.- FIN&lt;/b&gt;&lt;/font&gt;" style="text;whiteSpace=wrap;html=1;" parent="1i9SZSVEu_LZFU1LX0aY-1" vertex="1">
          <mxGeometry x="70" y="280" width="180" height="170" as="geometry" />
        </mxCell>
        <UserObject label="Inicio" lucidchartObjectId="1eugy.wZcs9c" id="RfzZ7hH0J2waPArCZCJS-0">
          <mxCell style="html=1;overflow=block;blockSpacing=1;whiteSpace=wrap;rounded=1;arcSize=50;whiteSpace=wrap;fontSize=16.7;fontColor=#333333;fontStyle=1;align=center;spacing=3.8;strokeColor=#5e5e5e;strokeOpacity=100;fillOpacity=100;fillColor=#f9d2de;strokeWidth=2.3;" parent="1i9SZSVEu_LZFU1LX0aY-1" vertex="1">
            <mxGeometry x="416" y="140" width="141" height="56" as="geometry" />
          </mxCell>
        </UserObject>
        <UserObject label="" lucidchartObjectId="Iyvgr4_m6Q6u" id="RfzZ7hH0J2waPArCZCJS-1">
          <mxCell style="html=1;jettySize=18;whiteSpace=wrap;fontSize=13;strokeColor=#5E5E5E;strokeWidth=1.5;rounded=1;arcSize=12;edgeStyle=orthogonalEdgeStyle;startArrow=none;;endArrow=block;endFill=1;;exitX=0.5;exitY=1.02;exitPerimeter=0;entryX=0.5;entryY=-0.015;entryPerimeter=0;" parent="1i9SZSVEu_LZFU1LX0aY-1" source="RfzZ7hH0J2waPArCZCJS-0" target="RfzZ7hH0J2waPArCZCJS-2" edge="1">
            <mxGeometry width="100" height="100" relative="1" as="geometry">
              <Array as="points" />
            </mxGeometry>
          </mxCell>
        </UserObject>
        <UserObject label="&lt;div style=&quot;display: flex ; justify-content: center ; text-align: center ; align-items: baseline ; font-size: 0 ; line-height: 1.25 ; margin-top: -2px&quot;&gt;&lt;span&gt;&lt;span style=&quot;font-size: 16.7px ; color: #333333 ; font-weight: bold&quot;&gt;Definir&lt;/span&gt;&lt;span style=&quot;font-size: 16.7px ; color: #333333&quot;&gt; area,base y altura&amp;nbsp;&lt;/span&gt;&lt;span style=&quot;font-size: 16.7px ; color: #333333 ; font-weight: bold&quot;&gt;como Entero;&lt;/span&gt;&lt;/span&gt;&lt;/div&gt;" lucidchartObjectId="KyvgMHgse3gV" id="RfzZ7hH0J2waPArCZCJS-2">
          <mxCell style="html=1;overflow=block;blockSpacing=1;whiteSpace=wrap;;whiteSpace=wrap;fontSize=13;spacing=9;strokeColor=#5E5E5E;fillOpacity=100;rounded=1;absoluteArcSize=1;arcSize=9;fillColor=#ffbbb1;strokeWidth=2.3;" parent="1i9SZSVEu_LZFU1LX0aY-1" vertex="1">
            <mxGeometry x="300" y="228" width="373" height="77" as="geometry" />
          </mxCell>
        </UserObject>
        <UserObject label="" lucidchartObjectId="NyvgTDk0V-yB" id="RfzZ7hH0J2waPArCZCJS-3">
          <mxCell style="html=1;jettySize=18;whiteSpace=wrap;fontSize=13;strokeColor=#5E5E5E;strokeWidth=1.5;rounded=1;arcSize=12;edgeStyle=orthogonalEdgeStyle;startArrow=none;;endArrow=block;endFill=1;;exitX=0.5;exitY=1.015;exitPerimeter=0;entryX=0.5;entryY=-0.013;entryPerimeter=0;" parent="1i9SZSVEu_LZFU1LX0aY-1" source="RfzZ7hH0J2waPArCZCJS-2" target="RfzZ7hH0J2waPArCZCJS-4" edge="1">
            <mxGeometry width="100" height="100" relative="1" as="geometry">
              <Array as="points" />
            </mxGeometry>
          </mxCell>
        </UserObject>
        <UserObject label="&quot;¿Insertar base y altura?&quot;;" lucidchartObjectId="Tyvgo6qo1qGF" id="RfzZ7hH0J2waPArCZCJS-4">
          <mxCell style="html=1;overflow=block;blockSpacing=1;whiteSpace=wrap;shape=display;whiteSpace=wrap;fontSize=16.7;fontColor=#333333;align=center;spacing=3.8;strokeColor=#5E5E5E;fillOpacity=100;rounded=1;absoluteArcSize=1;arcSize=9;fillColor=#c1e4f7;strokeWidth=2.3;" parent="1i9SZSVEu_LZFU1LX0aY-1" vertex="1">
            <mxGeometry x="332" y="345" width="309" height="87" as="geometry" />
          </mxCell>
        </UserObject>
        <UserObject label="Fin" lucidchartObjectId=".yvgesdlgcOw" id="RfzZ7hH0J2waPArCZCJS-8">
          <mxCell style="html=1;overflow=block;blockSpacing=1;whiteSpace=wrap;rounded=1;arcSize=50;whiteSpace=wrap;fontSize=16.7;fontColor=#333333;fontStyle=1;align=center;spacing=3.8;strokeColor=#5E5E5E;fillOpacity=100;fillColor=#f9d2de;strokeWidth=2.3;" parent="1i9SZSVEu_LZFU1LX0aY-1" vertex="1">
            <mxGeometry x="430" y="780" width="169" height="56" as="geometry" />
          </mxCell>
        </UserObject>
        <UserObject label="" lucidchartObjectId="XZBgZaTcVwSt" id="RfzZ7hH0J2waPArCZCJS-9">
          <mxCell style="html=1;jettySize=18;whiteSpace=wrap;fontSize=13;strokeColor=#5E5E5E;strokeWidth=1.5;rounded=1;arcSize=12;edgeStyle=orthogonalEdgeStyle;startArrow=none;;endArrow=block;endFill=1;;exitX=0.503;exitY=1.013;exitPerimeter=0;entryX=0.451;entryY=-0.01;entryPerimeter=0;" parent="1i9SZSVEu_LZFU1LX0aY-1" source="RfzZ7hH0J2waPArCZCJS-4" target="RfzZ7hH0J2waPArCZCJS-10" edge="1">
            <mxGeometry width="100" height="100" relative="1" as="geometry">
              <Array as="points" />
            </mxGeometry>
          </mxCell>
        </UserObject>
        <mxCell id="RfzZ7hH0J2waPArCZCJS-19" style="edgeStyle=orthogonalEdgeStyle;rounded=0;orthogonalLoop=1;jettySize=auto;html=1;exitX=0.5;exitY=1;exitDx=0;exitDy=0;entryX=0.5;entryY=0;entryDx=0;entryDy=0;" parent="1i9SZSVEu_LZFU1LX0aY-1" source="RfzZ7hH0J2waPArCZCJS-10" target="RfzZ7hH0J2waPArCZCJS-16" edge="1">
          <mxGeometry relative="1" as="geometry" />
        </mxCell>
        <UserObject label=" base, altura;" lucidchartObjectId="1ZBgCTdVVZPh" id="RfzZ7hH0J2waPArCZCJS-10">
          <mxCell style="html=1;overflow=block;blockSpacing=1;whiteSpace=wrap;shape=parallelogram;perimeter=parallelogramPerimeter;anchorPointDirection=0;whiteSpace=wrap;fontSize=16.7;fontColor=#333333;fontStyle=1;align=center;spacing=3.8;strokeColor=#5E5E5E;fillOpacity=100;rounded=1;absoluteArcSize=1;arcSize=9;fillColor=#ffdba9;strokeWidth=2.3;" parent="1i9SZSVEu_LZFU1LX0aY-1" vertex="1">
            <mxGeometry x="385" y="470" width="225" height="67" as="geometry" />
          </mxCell>
        </UserObject>
        <mxCell id="is3YGA_Bv094vsHXWawu-0" style="edgeStyle=orthogonalEdgeStyle;rounded=0;orthogonalLoop=1;jettySize=auto;html=1;" parent="1i9SZSVEu_LZFU1LX0aY-1" source="RfzZ7hH0J2waPArCZCJS-16" target="RfzZ7hH0J2waPArCZCJS-17" edge="1">
          <mxGeometry relative="1" as="geometry" />
        </mxCell>
        <UserObject label="&lt;div style=&quot;display: flex ; justify-content: center ; text-align: center ; align-items: baseline ; line-height: 1.25 ; margin-top: -2px&quot;&gt;&lt;font color=&quot;#333333&quot;&gt;&lt;span style=&quot;font-size: 16.7px&quot;&gt;&lt;b&gt;area=(base*altura)/2;&lt;/b&gt;&lt;/span&gt;&lt;/font&gt;&lt;/div&gt;" lucidchartObjectId="KyvgMHgse3gV" id="RfzZ7hH0J2waPArCZCJS-16">
          <mxCell style="html=1;overflow=block;blockSpacing=1;whiteSpace=wrap;;whiteSpace=wrap;fontSize=13;spacing=9;strokeColor=#5E5E5E;fillOpacity=100;rounded=1;absoluteArcSize=1;arcSize=9;fillColor=#ffbbb1;strokeWidth=2.3;" parent="1i9SZSVEu_LZFU1LX0aY-1" vertex="1">
            <mxGeometry x="311" y="580" width="373" height="40" as="geometry" />
          </mxCell>
        </UserObject>
        <mxCell id="RfzZ7hH0J2waPArCZCJS-22" style="edgeStyle=orthogonalEdgeStyle;rounded=0;orthogonalLoop=1;jettySize=auto;html=1;exitX=0;exitY=0;exitDx=171.375;exitDy=87;exitPerimeter=0;" parent="1i9SZSVEu_LZFU1LX0aY-1" source="RfzZ7hH0J2waPArCZCJS-17" target="RfzZ7hH0J2waPArCZCJS-8" edge="1">
          <mxGeometry relative="1" as="geometry" />
        </mxCell>
        <UserObject label="&quot;El resultado es:&quot;,area&quot;;" lucidchartObjectId="Tyvgo6qo1qGF" id="RfzZ7hH0J2waPArCZCJS-17">
          <mxCell style="html=1;overflow=block;blockSpacing=1;whiteSpace=wrap;shape=display;whiteSpace=wrap;fontSize=16.7;fontColor=#333333;align=center;spacing=3.8;strokeColor=#5E5E5E;fillOpacity=100;rounded=1;absoluteArcSize=1;arcSize=9;fillColor=#c1e4f7;strokeWidth=2.3;" parent="1i9SZSVEu_LZFU1LX0aY-1" vertex="1">
            <mxGeometry x="343" y="650" width="309" height="87" as="geometry" />
          </mxCell>
        </UserObject>
      </root>
    </mxGraphModel>
  </diagram>
  <diagram name="DiagramaCondicional" id="JCLdQUt5z1XhziPo8koO">
    <mxGraphModel dx="1422" dy="794" grid="1" gridSize="10" guides="1" tooltips="1" connect="1" arrows="1" fold="1" page="1" pageScale="1" pageWidth="827" pageHeight="1169" math="0" shadow="0">
      <root>
        <mxCell id="MqY0Ms0-JIDlLnj-U6vR-0" />
        <mxCell id="MqY0Ms0-JIDlLnj-U6vR-1" parent="MqY0Ms0-JIDlLnj-U6vR-0" />
        <mxCell id="MqY0Ms0-JIDlLnj-U6vR-2" value="&lt;p class=&quot;MsoTitle&quot; style=&quot;text-align: justify&quot;&gt;&lt;span lang=&quot;ES&quot;&gt;&lt;b&gt;&lt;font style=&quot;font-size: 18px&quot;&gt;Planteamiento del problema&lt;/font&gt;&lt;/b&gt; &lt;/span&gt;&lt;font&gt;&lt;font style=&quot;font-size: 12px&quot;&gt;&lt;b&gt;&lt;span lang=&quot;ES&quot; style=&quot;color: rgb(46 , 116 , 181)&quot;&gt;(Algoritmo&amp;nbsp;condicional)&lt;/span&gt;&lt;/b&gt;&lt;span lang=&quot;ES&quot;&gt;:&lt;/span&gt;&lt;/font&gt;&lt;font size=&quot;1&quot;&gt;&lt;span lang=&quot;ES&quot;&gt;&lt;/span&gt;&lt;/font&gt;&lt;/font&gt;&lt;/p&gt;&lt;p class=&quot;MsoNormal&quot;&gt;Realiza un algoritmo&amp;nbsp;y diagrama de flujo para identificar si un número par o impar, donde se solicite al usuario que ingrese un número (E) realice el proceso de validación (P) e imprima en pantalla el resultado.&lt;/p&gt;" style="text;whiteSpace=wrap;html=1;" vertex="1" parent="MqY0Ms0-JIDlLnj-U6vR-1">
          <mxGeometry x="60" y="10" width="660" height="90" as="geometry" />
        </mxCell>
        <mxCell id="MqY0Ms0-JIDlLnj-U6vR-3" value="&lt;p class=&quot;MsoListParagraphCxSpFirst&quot; style=&quot;margin-left: 46.05pt ; text-indent: -18.0pt&quot;&gt;&lt;b&gt;1. INICIO&lt;/b&gt;&lt;/p&gt;&lt;p class=&quot;MsoListParagraphCxSpFirst&quot; style=&quot;margin-left: 46.05pt ; text-indent: -18.0pt&quot;&gt;&lt;b&gt;2.&lt;/b&gt; Declarar variables var1, resultado como Entero.&lt;/p&gt;&lt;p class=&quot;MsoListParagraphCxSpFirst&quot; style=&quot;margin-left: 46.05pt ; text-indent: -18.0pt&quot;&gt;&lt;b&gt;3.&lt;/b&gt; “Favor de ingresar un número:”&lt;/p&gt;&lt;p class=&quot;MsoListParagraphCxSpFirst&quot; style=&quot;margin-left: 46.05pt ; text-indent: -18.0pt&quot;&gt;&lt;b&gt;4.&lt;/b&gt; [Almacenar en] var1&lt;/p&gt;&lt;p class=&quot;MsoListParagraphCxSpFirst&quot; style=&quot;margin-left: 46.05pt ; text-indent: -18.0pt&quot;&gt;&lt;b&gt;5.&lt;/b&gt; resultado =Var1%2;&lt;/p&gt;&lt;p class=&quot;MsoListParagraphCxSpFirst&quot; style=&quot;margin-left: 46.05pt ; text-indent: -18.0pt&quot;&gt;&lt;b&gt;6.&lt;/b&gt; SI resultado == 0 Entonces&lt;/p&gt;&lt;p class=&quot;MsoListParagraphCxSpFirst&quot; style=&quot;margin-left: 46.05pt ; text-indent: -18.0pt&quot;&gt;&lt;b&gt;7. &lt;/b&gt;Var1, “Es par” [resultado]&lt;/p&gt;&lt;p class=&quot;MsoListParagraphCxSpFirst&quot; style=&quot;margin-left: 46.05pt ; text-indent: -18.0pt&quot;&gt;&lt;b&gt;8. &lt;/b&gt;SINO&lt;/p&gt;&lt;p class=&quot;MsoListParagraphCxSpFirst&quot; style=&quot;margin-left: 46.05pt ; text-indent: -18.0pt&quot;&gt;&lt;b&gt;9.&lt;/b&gt; Var1, “Es impar” [resultado]&lt;/p&gt;&lt;p class=&quot;MsoListParagraphCxSpFirst&quot; style=&quot;margin-left: 46.05pt ; text-indent: -18.0pt&quot;&gt;&lt;b&gt;10.FIN&lt;/b&gt;&lt;/p&gt;" style="text;whiteSpace=wrap;html=1;" vertex="1" parent="MqY0Ms0-JIDlLnj-U6vR-1">
          <mxGeometry x="10" y="140" width="250" height="310" as="geometry" />
        </mxCell>
        <UserObject label="Inicio" lucidchartObjectId="1eugy.wZcs9c" id="MqY0Ms0-JIDlLnj-U6vR-4">
          <mxCell style="html=1;overflow=block;blockSpacing=1;whiteSpace=wrap;rounded=1;arcSize=50;whiteSpace=wrap;fontSize=16.7;fontColor=#333333;fontStyle=1;align=center;spacing=3.8;strokeColor=#5e5e5e;strokeOpacity=100;fillOpacity=100;fillColor=#f9d2de;strokeWidth=2.3;" vertex="1" parent="MqY0Ms0-JIDlLnj-U6vR-1">
            <mxGeometry x="366.65" y="140" width="141" height="56" as="geometry" />
          </mxCell>
        </UserObject>
        <UserObject label="" lucidchartObjectId="Iyvgr4_m6Q6u" id="MqY0Ms0-JIDlLnj-U6vR-5">
          <mxCell style="html=1;jettySize=18;whiteSpace=wrap;fontSize=13;strokeColor=#5E5E5E;strokeWidth=1.5;rounded=1;arcSize=12;edgeStyle=orthogonalEdgeStyle;startArrow=none;;endArrow=block;endFill=1;;exitX=0.5;exitY=1.02;exitPerimeter=0;entryX=0.5;entryY=-0.015;entryPerimeter=0;" edge="1" parent="MqY0Ms0-JIDlLnj-U6vR-1" source="MqY0Ms0-JIDlLnj-U6vR-4" target="MqY0Ms0-JIDlLnj-U6vR-6">
            <mxGeometry width="100" height="100" relative="1" as="geometry">
              <Array as="points" />
            </mxGeometry>
          </mxCell>
        </UserObject>
        <UserObject label="&lt;div style=&quot;display: flex ; justify-content: center ; text-align: center ; align-items: baseline ; font-size: 0 ; line-height: 1.25 ; margin-top: -2px&quot;&gt;&lt;span&gt;&lt;span style=&quot;font-size: 16.7px ; color: #333333 ; font-weight: bold&quot;&gt;Definir&lt;/span&gt;&lt;span style=&quot;font-size: 16.7px ; color: #333333&quot;&gt; var1,resultado&amp;nbsp;&lt;/span&gt;&lt;span style=&quot;font-size: 16.7px ; color: #333333 ; font-weight: bold&quot;&gt;como Entero;&lt;/span&gt;&lt;/span&gt;&lt;/div&gt;" lucidchartObjectId="KyvgMHgse3gV" id="MqY0Ms0-JIDlLnj-U6vR-6">
          <mxCell style="html=1;overflow=block;blockSpacing=1;whiteSpace=wrap;;whiteSpace=wrap;fontSize=13;spacing=9;strokeColor=#5E5E5E;fillOpacity=100;rounded=1;absoluteArcSize=1;arcSize=9;fillColor=#ffbbb1;strokeWidth=2.3;" vertex="1" parent="MqY0Ms0-JIDlLnj-U6vR-1">
            <mxGeometry x="250.65" y="228" width="373" height="77" as="geometry" />
          </mxCell>
        </UserObject>
        <UserObject label="" lucidchartObjectId="NyvgTDk0V-yB" id="MqY0Ms0-JIDlLnj-U6vR-7">
          <mxCell style="html=1;jettySize=18;whiteSpace=wrap;fontSize=13;strokeColor=#5E5E5E;strokeWidth=1.5;rounded=1;arcSize=12;edgeStyle=orthogonalEdgeStyle;startArrow=none;;endArrow=block;endFill=1;;exitX=0.5;exitY=1.015;exitPerimeter=0;entryX=0.5;entryY=-0.013;entryPerimeter=0;" edge="1" parent="MqY0Ms0-JIDlLnj-U6vR-1" source="MqY0Ms0-JIDlLnj-U6vR-6" target="MqY0Ms0-JIDlLnj-U6vR-8">
            <mxGeometry width="100" height="100" relative="1" as="geometry">
              <Array as="points" />
            </mxGeometry>
          </mxCell>
        </UserObject>
        <UserObject label="&quot;Favor de ingresar un número:&quot;;" lucidchartObjectId="Tyvgo6qo1qGF" id="MqY0Ms0-JIDlLnj-U6vR-8">
          <mxCell style="html=1;overflow=block;blockSpacing=1;whiteSpace=wrap;shape=display;whiteSpace=wrap;fontSize=16.7;fontColor=#333333;align=center;spacing=3.8;strokeColor=#5E5E5E;fillOpacity=100;rounded=1;absoluteArcSize=1;arcSize=9;fillColor=#c1e4f7;strokeWidth=2.3;" vertex="1" parent="MqY0Ms0-JIDlLnj-U6vR-1">
            <mxGeometry x="282.65" y="345" width="309" height="87" as="geometry" />
          </mxCell>
        </UserObject>
        <UserObject label="" lucidchartObjectId="XZBgZaTcVwSt" id="MqY0Ms0-JIDlLnj-U6vR-10">
          <mxCell style="html=1;jettySize=18;whiteSpace=wrap;fontSize=13;strokeColor=#5E5E5E;strokeWidth=1.5;rounded=1;arcSize=12;edgeStyle=orthogonalEdgeStyle;startArrow=none;;endArrow=block;endFill=1;;exitX=0.503;exitY=1.013;exitPerimeter=0;entryX=0.451;entryY=-0.01;entryPerimeter=0;" edge="1" parent="MqY0Ms0-JIDlLnj-U6vR-1" source="MqY0Ms0-JIDlLnj-U6vR-8" target="MqY0Ms0-JIDlLnj-U6vR-12">
            <mxGeometry width="100" height="100" relative="1" as="geometry">
              <Array as="points" />
            </mxGeometry>
          </mxCell>
        </UserObject>
        <mxCell id="MqY0Ms0-JIDlLnj-U6vR-11" style="edgeStyle=orthogonalEdgeStyle;rounded=0;orthogonalLoop=1;jettySize=auto;html=1;exitX=0.5;exitY=1;exitDx=0;exitDy=0;entryX=0.5;entryY=0;entryDx=0;entryDy=0;" edge="1" parent="MqY0Ms0-JIDlLnj-U6vR-1" source="MqY0Ms0-JIDlLnj-U6vR-12" target="MqY0Ms0-JIDlLnj-U6vR-14">
          <mxGeometry relative="1" as="geometry" />
        </mxCell>
        <UserObject label=" var1" lucidchartObjectId="1ZBgCTdVVZPh" id="MqY0Ms0-JIDlLnj-U6vR-12">
          <mxCell style="html=1;overflow=block;blockSpacing=1;whiteSpace=wrap;shape=parallelogram;perimeter=parallelogramPerimeter;anchorPointDirection=0;whiteSpace=wrap;fontSize=16.7;fontColor=#333333;fontStyle=1;align=center;spacing=3.8;strokeColor=#5E5E5E;fillOpacity=100;rounded=1;absoluteArcSize=1;arcSize=9;fillColor=#ffdba9;strokeWidth=2.3;" vertex="1" parent="MqY0Ms0-JIDlLnj-U6vR-1">
            <mxGeometry x="335.65" y="470" width="225" height="67" as="geometry" />
          </mxCell>
        </UserObject>
        <mxCell id="msbPOQ2YcCLlUx0IZfMa-8" style="edgeStyle=orthogonalEdgeStyle;rounded=0;orthogonalLoop=1;jettySize=auto;html=1;entryX=0.5;entryY=0;entryDx=0;entryDy=0;" edge="1" parent="MqY0Ms0-JIDlLnj-U6vR-1" source="MqY0Ms0-JIDlLnj-U6vR-14" target="msbPOQ2YcCLlUx0IZfMa-0">
          <mxGeometry relative="1" as="geometry" />
        </mxCell>
        <UserObject label="&lt;div style=&quot;display: flex ; justify-content: center ; text-align: center ; align-items: baseline ; line-height: 1.25 ; margin-top: -2px&quot;&gt;&lt;font color=&quot;#333333&quot;&gt;&lt;span style=&quot;font-size: 16.7px&quot;&gt;&lt;b&gt;resultado= var1%2&lt;/b&gt;&lt;/span&gt;&lt;/font&gt;&lt;/div&gt;" lucidchartObjectId="KyvgMHgse3gV" id="MqY0Ms0-JIDlLnj-U6vR-14">
          <mxCell style="html=1;overflow=block;blockSpacing=1;whiteSpace=wrap;;whiteSpace=wrap;fontSize=13;spacing=9;strokeColor=#5E5E5E;fillOpacity=100;rounded=1;absoluteArcSize=1;arcSize=9;fillColor=#ffbbb1;strokeWidth=2.3;" vertex="1" parent="MqY0Ms0-JIDlLnj-U6vR-1">
            <mxGeometry x="261.65" y="580" width="373" height="40" as="geometry" />
          </mxCell>
        </UserObject>
        <UserObject label="resultado==0" lucidchartObjectId="rZCgwqekB-l0" id="msbPOQ2YcCLlUx0IZfMa-0">
          <mxCell style="html=1;overflow=block;blockSpacing=1;whiteSpace=wrap;rhombus;whiteSpace=wrap;fontSize=16.7;fontColor=#333333;align=center;spacing=3.8;strokeColor=#5E5E5E;fillOpacity=100;rounded=1;absoluteArcSize=1;arcSize=9;fillColor=#a3d977;strokeWidth=2.3;" vertex="1" parent="MqY0Ms0-JIDlLnj-U6vR-1">
            <mxGeometry x="335.65" y="650" width="225" height="112" as="geometry" />
          </mxCell>
        </UserObject>
        <UserObject label="" lucidchartObjectId="rZCgVyohaM2." id="msbPOQ2YcCLlUx0IZfMa-1">
          <mxCell style="html=1;jettySize=18;whiteSpace=wrap;fontSize=13;strokeColor=#5E5E5E;strokeWidth=1.5;rounded=1;arcSize=12;edgeStyle=orthogonalEdgeStyle;startArrow=none;;endArrow=block;endFill=1;;exitX=0;exitY=0;exitPerimeter=0;entryX=0.5;entryY=-0.02;entryPerimeter=0;exitDx=170;exitDy=70;" edge="1" parent="MqY0Ms0-JIDlLnj-U6vR-1" target="msbPOQ2YcCLlUx0IZfMa-2" source="msbPOQ2YcCLlUx0IZfMa-10">
            <mxGeometry width="100" height="100" relative="1" as="geometry">
              <Array as="points" />
              <mxPoint x="671.65" y="878.164" as="sourcePoint" />
            </mxGeometry>
          </mxCell>
        </UserObject>
        <UserObject label="Fin" lucidchartObjectId="rZCg4.m~KNoU" id="msbPOQ2YcCLlUx0IZfMa-2">
          <mxCell style="html=1;overflow=block;blockSpacing=1;whiteSpace=wrap;rounded=1;arcSize=50;whiteSpace=wrap;fontSize=16.7;fontColor=#333333;fontStyle=1;align=center;spacing=3.8;strokeColor=#5E5E5E;fillOpacity=100;fillColor=#f9d2de;strokeWidth=2.3;" vertex="1" parent="MqY0Ms0-JIDlLnj-U6vR-1">
            <mxGeometry x="354.65" y="945" width="169" height="56" as="geometry" />
          </mxCell>
        </UserObject>
        <UserObject label="" lucidchartObjectId="rZCgGOKAPjba" id="msbPOQ2YcCLlUx0IZfMa-3">
          <mxCell style="html=1;jettySize=18;whiteSpace=wrap;fontSize=13.3;fontColor=#333333;fontStyle=1;align=center;strokeColor=#5E5E5E;strokeWidth=1.5;rounded=1;arcSize=12;edgeStyle=orthogonalEdgeStyle;startArrow=none;;endArrow=block;endFill=1;;exitX=0.994;exitY=0.5;exitPerimeter=0;" edge="1" parent="MqY0Ms0-JIDlLnj-U6vR-1" source="msbPOQ2YcCLlUx0IZfMa-0">
            <mxGeometry width="100" height="100" relative="1" as="geometry">
              <Array as="points">
                <mxPoint x="650" y="706" />
              </Array>
              <mxPoint x="650" y="779" as="targetPoint" />
            </mxGeometry>
          </mxCell>
        </UserObject>
        <mxCell id="msbPOQ2YcCLlUx0IZfMa-4" value="Sí" style="text;html=1;resizable=0;labelBackgroundColor=#ffffff;align=center;verticalAlign=middle;fontStyle=1;fontColor=#333333;;fontSize=13.3;" vertex="1" parent="msbPOQ2YcCLlUx0IZfMa-3">
          <mxGeometry relative="1" as="geometry" />
        </mxCell>
        <UserObject label="" lucidchartObjectId="j9CgK5pVXGD2" id="msbPOQ2YcCLlUx0IZfMa-5">
          <mxCell style="html=1;jettySize=18;whiteSpace=wrap;fontSize=13.3;fontColor=#333333;fontStyle=1;align=center;strokeColor=#5E5E5E;strokeWidth=1.5;rounded=1;arcSize=12;edgeStyle=orthogonalEdgeStyle;startArrow=none;;endArrow=block;endFill=1;;exitX=0.006;exitY=0.5;exitPerimeter=0;entryX=0.5;entryY=-0.012;entryPerimeter=0;" edge="1" parent="MqY0Ms0-JIDlLnj-U6vR-1" source="msbPOQ2YcCLlUx0IZfMa-0">
            <mxGeometry width="100" height="100" relative="1" as="geometry">
              <Array as="points">
                <mxPoint x="252" y="706" />
              </Array>
              <mxPoint x="252" y="778.836" as="targetPoint" />
            </mxGeometry>
          </mxCell>
        </UserObject>
        <mxCell id="msbPOQ2YcCLlUx0IZfMa-6" value="no" style="text;html=1;resizable=0;labelBackgroundColor=#ffffff;align=center;verticalAlign=middle;fontStyle=1;fontColor=#333333;;fontSize=13.3;" vertex="1" parent="msbPOQ2YcCLlUx0IZfMa-5">
          <mxGeometry relative="1" as="geometry" />
        </mxCell>
        <UserObject label="" lucidchartObjectId="y9CgShri_h-i" id="msbPOQ2YcCLlUx0IZfMa-7">
          <mxCell style="html=1;jettySize=18;whiteSpace=wrap;fontSize=13;strokeColor=#5E5E5E;strokeWidth=1.5;rounded=1;arcSize=12;edgeStyle=orthogonalEdgeStyle;startArrow=none;;endArrow=block;endFill=1;;entryX=0.5;entryY=-0.02;entryPerimeter=0;" edge="1" parent="MqY0Ms0-JIDlLnj-U6vR-1" target="msbPOQ2YcCLlUx0IZfMa-2" source="msbPOQ2YcCLlUx0IZfMa-9">
            <mxGeometry width="100" height="100" relative="1" as="geometry">
              <Array as="points" />
              <mxPoint x="252.65200000000004" y="878.164" as="sourcePoint" />
            </mxGeometry>
          </mxCell>
        </UserObject>
        <UserObject label="var1,&quot; Es impar&quot;;" lucidchartObjectId="Tyvgo6qo1qGF" id="msbPOQ2YcCLlUx0IZfMa-9">
          <mxCell style="html=1;overflow=block;blockSpacing=1;whiteSpace=wrap;shape=display;whiteSpace=wrap;fontSize=16.7;fontColor=#333333;align=center;spacing=3.8;strokeColor=#5E5E5E;fillOpacity=100;rounded=1;absoluteArcSize=1;arcSize=9;fillColor=#c1e4f7;strokeWidth=2.3;" vertex="1" parent="MqY0Ms0-JIDlLnj-U6vR-1">
            <mxGeometry x="90" y="780" width="300" height="70" as="geometry" />
          </mxCell>
        </UserObject>
        <UserObject label="var1,&quot; Es par&quot;;" lucidchartObjectId="Tyvgo6qo1qGF" id="msbPOQ2YcCLlUx0IZfMa-10">
          <mxCell style="html=1;overflow=block;blockSpacing=1;whiteSpace=wrap;shape=display;whiteSpace=wrap;fontSize=16.7;fontColor=#333333;align=center;spacing=3.8;strokeColor=#5E5E5E;fillOpacity=100;rounded=1;absoluteArcSize=1;arcSize=9;fillColor=#c1e4f7;strokeWidth=2.3;" vertex="1" parent="MqY0Ms0-JIDlLnj-U6vR-1">
            <mxGeometry x="480" y="780" width="300" height="70" as="geometry" />
          </mxCell>
        </UserObject>
      </root>
    </mxGraphModel>
  </diagram>
  <diagram id="C5RBs43oDa-KdzZeNtuy" name="Condición Simple">
    <mxGraphModel dx="2031" dy="1134" grid="1" gridSize="10" guides="1" tooltips="1" connect="1" arrows="1" fold="1" page="1" pageScale="1" pageWidth="827" pageHeight="1169" math="0" shadow="0">
      <root>
        <mxCell id="WIyWlLk6GJQsqaUBKTNV-0" />
        <mxCell id="WIyWlLk6GJQsqaUBKTNV-1" parent="WIyWlLk6GJQsqaUBKTNV-0" />
        <mxCell id="GgvImhCpCNPg6xSy1tRI-0" value="&lt;h1&gt;Planteamiento del problema&lt;span style=&quot;font-weight: normal ; font-size: 16.6667px ; color: rgb(51 , 51 , 51)&quot;&gt;&lt;br&gt;&lt;/span&gt;&lt;font color=&quot;#333333&quot;&gt;&lt;span style=&quot;font-size: 16.6667px ; font-weight: normal&quot;&gt;Realizar un algoritmo y diagrama de flujo en donde se pide la edad del usuario (E);Si es mayor  de edad(P); debe de mostrar en pantalla un mensaje &lt;/span&gt;&lt;span style=&quot;font-size: 16.6667px ; font-weight: 400&quot;&gt;indicándolo&lt;/span&gt;&lt;span style=&quot;font-size: 16.6667px ; font-weight: normal&quot;&gt;&amp;nbsp;(S).&lt;/span&gt;&lt;/font&gt;&lt;/h1&gt;" style="text;html=1;strokeColor=none;fillColor=none;spacing=5;spacingTop=-20;whiteSpace=wrap;overflow=hidden;rounded=0;" vertex="1" parent="WIyWlLk6GJQsqaUBKTNV-1">
          <mxGeometry x="44" y="10" width="740" height="110" as="geometry" />
        </mxCell>
        <UserObject label="Inicio" lucidchartObjectId="1eugy.wZcs9c" id="vLUNJGMlxgf-9Cl9QiJa-1">
          <mxCell style="html=1;overflow=block;blockSpacing=1;whiteSpace=wrap;rounded=1;arcSize=50;whiteSpace=wrap;fontSize=16.7;fontColor=#333333;fontStyle=1;align=center;spacing=3.8;strokeColor=#5e5e5e;strokeOpacity=100;fillOpacity=100;fillColor=#f9d2de;strokeWidth=2.3;" vertex="1" parent="WIyWlLk6GJQsqaUBKTNV-1">
            <mxGeometry x="256" y="150" width="141" height="56" as="geometry" />
          </mxCell>
        </UserObject>
        <UserObject label="" lucidchartObjectId="Iyvgr4_m6Q6u" id="vLUNJGMlxgf-9Cl9QiJa-2">
          <mxCell style="html=1;jettySize=18;whiteSpace=wrap;fontSize=13;strokeColor=#5E5E5E;strokeWidth=1.5;rounded=1;arcSize=12;edgeStyle=orthogonalEdgeStyle;startArrow=none;;endArrow=block;endFill=1;;exitX=0.5;exitY=1.02;exitPerimeter=0;entryX=0.5;entryY=-0.015;entryPerimeter=0;" edge="1" parent="WIyWlLk6GJQsqaUBKTNV-1" source="vLUNJGMlxgf-9Cl9QiJa-1" target="vLUNJGMlxgf-9Cl9QiJa-3">
            <mxGeometry width="100" height="100" relative="1" as="geometry">
              <Array as="points" />
            </mxGeometry>
          </mxCell>
        </UserObject>
        <UserObject label="&lt;div style=&quot;display: flex; justify-content: center; text-align: center; align-items: baseline; font-size: 0; line-height: 1.25;margin-top: -2px;&quot;&gt;&lt;span&gt;&lt;span style=&quot;font-size:16.7px;color:#333333;font-weight: bold;&quot;&gt;Definir&lt;/span&gt;&lt;span style=&quot;font-size:16.7px;color:#333333;&quot;&gt; Edad &lt;/span&gt;&lt;span style=&quot;font-size:16.7px;color:#333333;font-weight: bold;&quot;&gt;como Entero;&lt;/span&gt;&lt;/span&gt;&lt;/div&gt;" lucidchartObjectId="KyvgMHgse3gV" id="vLUNJGMlxgf-9Cl9QiJa-3">
          <mxCell style="html=1;overflow=block;blockSpacing=1;whiteSpace=wrap;;whiteSpace=wrap;fontSize=13;spacing=9;strokeColor=#5E5E5E;fillOpacity=100;rounded=1;absoluteArcSize=1;arcSize=9;fillColor=#ffbbb1;strokeWidth=2.3;" vertex="1" parent="WIyWlLk6GJQsqaUBKTNV-1">
            <mxGeometry x="140" y="238" width="373" height="77" as="geometry" />
          </mxCell>
        </UserObject>
        <UserObject label="" lucidchartObjectId="NyvgTDk0V-yB" id="vLUNJGMlxgf-9Cl9QiJa-4">
          <mxCell style="html=1;jettySize=18;whiteSpace=wrap;fontSize=13;strokeColor=#5E5E5E;strokeWidth=1.5;rounded=1;arcSize=12;edgeStyle=orthogonalEdgeStyle;startArrow=none;;endArrow=block;endFill=1;;exitX=0.5;exitY=1.015;exitPerimeter=0;entryX=0.5;entryY=-0.013;entryPerimeter=0;" edge="1" parent="WIyWlLk6GJQsqaUBKTNV-1" source="vLUNJGMlxgf-9Cl9QiJa-3" target="vLUNJGMlxgf-9Cl9QiJa-5">
            <mxGeometry width="100" height="100" relative="1" as="geometry">
              <Array as="points" />
            </mxGeometry>
          </mxCell>
        </UserObject>
        <UserObject label="¿Cuál es tu edad?" lucidchartObjectId="Tyvgo6qo1qGF" id="vLUNJGMlxgf-9Cl9QiJa-5">
          <mxCell style="html=1;overflow=block;blockSpacing=1;whiteSpace=wrap;shape=display;whiteSpace=wrap;fontSize=16.7;fontColor=#333333;align=center;spacing=3.8;strokeColor=#5E5E5E;fillOpacity=100;rounded=1;absoluteArcSize=1;arcSize=9;fillColor=#c1e4f7;strokeWidth=2.3;" vertex="1" parent="WIyWlLk6GJQsqaUBKTNV-1">
            <mxGeometry x="172" y="355" width="309" height="87" as="geometry" />
          </mxCell>
        </UserObject>
        <UserObject label="Edad&amp;gt;=18" lucidchartObjectId="Yyvg73JgTXUK" id="vLUNJGMlxgf-9Cl9QiJa-6">
          <mxCell style="html=1;overflow=block;blockSpacing=1;whiteSpace=wrap;rhombus;whiteSpace=wrap;fontSize=16.7;fontColor=#333333;align=center;spacing=3.8;strokeColor=#5E5E5E;fillOpacity=100;rounded=1;absoluteArcSize=1;arcSize=9;fillColor=#a3d977;strokeWidth=2.3;" vertex="1" parent="WIyWlLk6GJQsqaUBKTNV-1">
            <mxGeometry x="235" y="660" width="225" height="112" as="geometry" />
          </mxCell>
        </UserObject>
        <UserObject label="&quot;Eres Mayor de Edad&quot;;" lucidchartObjectId="7yvg-SJna4tc" id="vLUNJGMlxgf-9Cl9QiJa-7">
          <mxCell style="html=1;overflow=block;blockSpacing=1;whiteSpace=wrap;shape=display;whiteSpace=wrap;fontSize=16.7;fontColor=#333333;align=center;spacing=9;strokeColor=#5E5E5E;fillOpacity=100;rounded=1;absoluteArcSize=1;arcSize=9;fillColor=#c1e4f7;strokeWidth=2.3;" vertex="1" parent="WIyWlLk6GJQsqaUBKTNV-1">
            <mxGeometry x="439" y="750" width="326" height="97" as="geometry" />
          </mxCell>
        </UserObject>
        <UserObject label="" lucidchartObjectId="-yvgM8hDQPbI" id="vLUNJGMlxgf-9Cl9QiJa-8">
          <mxCell style="html=1;jettySize=18;whiteSpace=wrap;fontSize=13;strokeColor=#5E5E5E;strokeWidth=1.5;rounded=1;arcSize=12;edgeStyle=orthogonalEdgeStyle;startArrow=none;;endArrow=block;endFill=1;;exitX=0.5;exitY=1.012;exitPerimeter=0;entryX=0.5;entryY=-0.02;entryPerimeter=0;" edge="1" parent="WIyWlLk6GJQsqaUBKTNV-1" source="vLUNJGMlxgf-9Cl9QiJa-7" target="vLUNJGMlxgf-9Cl9QiJa-9">
            <mxGeometry width="100" height="100" relative="1" as="geometry">
              <Array as="points">
                <mxPoint x="602" y="865" />
                <mxPoint x="348" y="865" />
              </Array>
            </mxGeometry>
          </mxCell>
        </UserObject>
        <UserObject label="Fin" lucidchartObjectId=".yvgesdlgcOw" id="vLUNJGMlxgf-9Cl9QiJa-9">
          <mxCell style="html=1;overflow=block;blockSpacing=1;whiteSpace=wrap;rounded=1;arcSize=50;whiteSpace=wrap;fontSize=16.7;fontColor=#333333;fontStyle=1;align=center;spacing=3.8;strokeColor=#5E5E5E;fillOpacity=100;fillColor=#f9d2de;strokeWidth=2.3;" vertex="1" parent="WIyWlLk6GJQsqaUBKTNV-1">
            <mxGeometry x="263" y="900" width="169" height="56" as="geometry" />
          </mxCell>
        </UserObject>
        <UserObject label="" lucidchartObjectId="XZBgZaTcVwSt" id="vLUNJGMlxgf-9Cl9QiJa-10">
          <mxCell style="html=1;jettySize=18;whiteSpace=wrap;fontSize=13;strokeColor=#5E5E5E;strokeWidth=1.5;rounded=1;arcSize=12;edgeStyle=orthogonalEdgeStyle;startArrow=none;;endArrow=block;endFill=1;;exitX=0.503;exitY=1.013;exitPerimeter=0;entryX=0.451;entryY=-0.01;entryPerimeter=0;" edge="1" parent="WIyWlLk6GJQsqaUBKTNV-1" source="vLUNJGMlxgf-9Cl9QiJa-5" target="vLUNJGMlxgf-9Cl9QiJa-11">
            <mxGeometry width="100" height="100" relative="1" as="geometry">
              <Array as="points" />
            </mxGeometry>
          </mxCell>
        </UserObject>
        <UserObject label=" Edad;" lucidchartObjectId="1ZBgCTdVVZPh" id="vLUNJGMlxgf-9Cl9QiJa-11">
          <mxCell style="html=1;overflow=block;blockSpacing=1;whiteSpace=wrap;shape=parallelogram;perimeter=parallelogramPerimeter;anchorPointDirection=0;whiteSpace=wrap;fontSize=16.7;fontColor=#333333;fontStyle=1;align=center;spacing=3.8;strokeColor=#5E5E5E;fillOpacity=100;rounded=1;absoluteArcSize=1;arcSize=9;fillColor=#ffdba9;strokeWidth=2.3;" vertex="1" parent="WIyWlLk6GJQsqaUBKTNV-1">
            <mxGeometry x="225" y="495" width="225" height="112" as="geometry" />
          </mxCell>
        </UserObject>
        <UserObject label="" lucidchartObjectId="q0Bg7mM9zg1Y" id="vLUNJGMlxgf-9Cl9QiJa-12">
          <mxCell style="html=1;jettySize=18;whiteSpace=wrap;fontSize=13;strokeColor=#5E5E5E;strokeWidth=1.5;rounded=1;arcSize=12;edgeStyle=orthogonalEdgeStyle;startArrow=none;;endArrow=block;endFill=1;;exitX=0.541;exitY=1.01;exitPerimeter=0;entryX=0.5;entryY=0.001;entryPerimeter=0;" edge="1" parent="WIyWlLk6GJQsqaUBKTNV-1" source="vLUNJGMlxgf-9Cl9QiJa-11" target="vLUNJGMlxgf-9Cl9QiJa-6">
            <mxGeometry width="100" height="100" relative="1" as="geometry">
              <Array as="points" />
            </mxGeometry>
          </mxCell>
        </UserObject>
        <UserObject label="" lucidchartObjectId="N0BgNx1KsE2y" id="vLUNJGMlxgf-9Cl9QiJa-13">
          <mxCell style="html=1;jettySize=18;whiteSpace=wrap;fontSize=13.3;fontColor=#333333;fontStyle=1;align=center;strokeColor=#5E5E5E;strokeWidth=1.5;rounded=1;arcSize=12;edgeStyle=orthogonalEdgeStyle;startArrow=none;;endArrow=block;endFill=1;;exitX=0.994;exitY=0.5;exitPerimeter=0;entryX=0.5;entryY=-0.012;entryPerimeter=0;" edge="1" parent="WIyWlLk6GJQsqaUBKTNV-1" source="vLUNJGMlxgf-9Cl9QiJa-6" target="vLUNJGMlxgf-9Cl9QiJa-7">
            <mxGeometry width="100" height="100" relative="1" as="geometry">
              <Array as="points">
                <mxPoint x="459" y="715" />
                <mxPoint x="602" y="715" />
              </Array>
            </mxGeometry>
          </mxCell>
        </UserObject>
        <mxCell id="vLUNJGMlxgf-9Cl9QiJa-14" value="Sí" style="text;html=1;resizable=0;labelBackgroundColor=#ffffff;align=center;verticalAlign=middle;fontStyle=1;fontColor=#333333;;fontSize=13.3;" vertex="1" parent="vLUNJGMlxgf-9Cl9QiJa-13">
          <mxGeometry relative="1" as="geometry" />
        </mxCell>
        <UserObject label="" lucidchartObjectId="R0Bg9nB59yPT" id="vLUNJGMlxgf-9Cl9QiJa-15">
          <mxCell style="html=1;jettySize=18;whiteSpace=wrap;fontSize=13.3;fontColor=#333333;fontStyle=1;align=center;strokeColor=#5E5E5E;strokeWidth=1.5;rounded=1;arcSize=12;edgeStyle=orthogonalEdgeStyle;startArrow=none;;endArrow=block;endFill=1;;exitX=0.5;exitY=0.999;exitPerimeter=0;entryX=0.5;entryY=-0.02;entryPerimeter=0;" edge="1" parent="WIyWlLk6GJQsqaUBKTNV-1" source="vLUNJGMlxgf-9Cl9QiJa-6" target="vLUNJGMlxgf-9Cl9QiJa-9">
            <mxGeometry width="100" height="100" relative="1" as="geometry">
              <Array as="points" />
            </mxGeometry>
          </mxCell>
        </UserObject>
        <mxCell id="vLUNJGMlxgf-9Cl9QiJa-16" value="no" style="text;html=1;resizable=0;labelBackgroundColor=#ffffff;align=center;verticalAlign=middle;fontStyle=1;fontColor=#333333;;fontSize=13.3;" vertex="1" parent="vLUNJGMlxgf-9Cl9QiJa-15">
          <mxGeometry relative="1" as="geometry" />
        </mxCell>
      </root>
    </mxGraphModel>
  </diagram>
  <diagram id="60vqut77W9qFkMdf1q8t" name="Condición Doble">
    <mxGraphModel dx="1422" dy="794" grid="1" gridSize="10" guides="1" tooltips="1" connect="1" arrows="1" fold="1" page="1" pageScale="1" pageWidth="827" pageHeight="1169" math="0" shadow="0">
      <root>
        <mxCell id="SpkF6rD-bT0fngQKr083-0" />
        <mxCell id="SpkF6rD-bT0fngQKr083-1" parent="SpkF6rD-bT0fngQKr083-0" />
        <UserObject label="Inicio" lucidchartObjectId="rZCgYyoeOkga" id="czTswIMVeAc9SK-UpcZS-0">
          <mxCell style="html=1;overflow=block;blockSpacing=1;whiteSpace=wrap;rounded=1;arcSize=50;whiteSpace=wrap;fontSize=16.7;fontColor=#333333;fontStyle=1;align=center;spacing=3.8;strokeColor=#5e5e5e;strokeOpacity=100;fillOpacity=100;fillColor=#f9d2de;strokeWidth=2.3;" vertex="1" parent="SpkF6rD-bT0fngQKr083-1">
            <mxGeometry x="313" y="145" width="141" height="56" as="geometry" />
          </mxCell>
        </UserObject>
        <UserObject label="" lucidchartObjectId="rZCgOW400ZIk" id="czTswIMVeAc9SK-UpcZS-2">
          <mxCell style="html=1;jettySize=18;whiteSpace=wrap;fontSize=13;strokeColor=#5E5E5E;strokeWidth=1.5;rounded=1;arcSize=12;edgeStyle=orthogonalEdgeStyle;startArrow=none;;endArrow=block;endFill=1;;exitX=0.5;exitY=1.02;exitPerimeter=0;entryX=0.5;entryY=-0.015;entryPerimeter=0;" edge="1" parent="SpkF6rD-bT0fngQKr083-1" source="czTswIMVeAc9SK-UpcZS-0" target="czTswIMVeAc9SK-UpcZS-3">
            <mxGeometry width="100" height="100" relative="1" as="geometry">
              <Array as="points" />
            </mxGeometry>
          </mxCell>
        </UserObject>
        <UserObject label="&lt;div style=&quot;display: flex; justify-content: center; text-align: center; align-items: baseline; font-size: 0; line-height: 1.25;margin-top: -2px;&quot;&gt;&lt;span&gt;&lt;span style=&quot;font-size:16.7px;color:#333333;font-weight: bold;&quot;&gt;Definir&lt;/span&gt;&lt;span style=&quot;font-size:16.7px;color:#333333;&quot;&gt; Cal1,Cal2,Cal3, Prom &lt;/span&gt;&lt;span style=&quot;font-size:16.7px;color:#333333;font-weight: bold;&quot;&gt;como Entero;&lt;/span&gt;&lt;/span&gt;&lt;/div&gt;" lucidchartObjectId="rZCgSZssg_J." id="czTswIMVeAc9SK-UpcZS-3">
          <mxCell style="html=1;overflow=block;blockSpacing=1;whiteSpace=wrap;;whiteSpace=wrap;fontSize=13;spacing=9;strokeColor=#5E5E5E;fillOpacity=100;rounded=1;absoluteArcSize=1;arcSize=9;fillColor=#ffbbb1;strokeWidth=2.3;" vertex="1" parent="SpkF6rD-bT0fngQKr083-1">
            <mxGeometry x="196" y="235" width="373" height="77" as="geometry" />
          </mxCell>
        </UserObject>
        <UserObject label="" lucidchartObjectId="rZCgerfE-bs5" id="czTswIMVeAc9SK-UpcZS-4">
          <mxCell style="html=1;jettySize=18;whiteSpace=wrap;fontSize=13;strokeColor=#5E5E5E;strokeWidth=1.5;rounded=1;arcSize=12;edgeStyle=orthogonalEdgeStyle;startArrow=none;;endArrow=block;endFill=1;;exitX=0.5;exitY=1.015;exitPerimeter=0;entryX=0.5;entryY=-0.013;entryPerimeter=0;" edge="1" parent="SpkF6rD-bT0fngQKr083-1" source="czTswIMVeAc9SK-UpcZS-3" target="czTswIMVeAc9SK-UpcZS-5">
            <mxGeometry width="100" height="100" relative="1" as="geometry">
              <Array as="points" />
            </mxGeometry>
          </mxCell>
        </UserObject>
        <UserObject label="&quot;Ingrese las 3 calificaciones de Química:&quot;" lucidchartObjectId="rZCgPxohDJM3" id="czTswIMVeAc9SK-UpcZS-5">
          <mxCell style="html=1;overflow=block;blockSpacing=1;whiteSpace=wrap;shape=display;whiteSpace=wrap;fontSize=16.7;fontColor=#333333;align=center;spacing=3.8;strokeColor=#5E5E5E;fillOpacity=100;rounded=1;absoluteArcSize=1;arcSize=9;fillColor=#c1e4f7;strokeWidth=2.3;" vertex="1" parent="SpkF6rD-bT0fngQKr083-1">
            <mxGeometry x="228" y="346" width="309" height="87" as="geometry" />
          </mxCell>
        </UserObject>
        <UserObject label="Prom&amp;gt;=7" lucidchartObjectId="rZCgwqekB-l0" id="czTswIMVeAc9SK-UpcZS-6">
          <mxCell style="html=1;overflow=block;blockSpacing=1;whiteSpace=wrap;rhombus;whiteSpace=wrap;fontSize=16.7;fontColor=#333333;align=center;spacing=3.8;strokeColor=#5E5E5E;fillOpacity=100;rounded=1;absoluteArcSize=1;arcSize=9;fillColor=#a3d977;strokeWidth=2.3;" vertex="1" parent="SpkF6rD-bT0fngQKr083-1">
            <mxGeometry x="290" y="685" width="225" height="112" as="geometry" />
          </mxCell>
        </UserObject>
        <UserObject label="&quot;Aprobó&quot;;" lucidchartObjectId="rZCg3_o42d~u" id="czTswIMVeAc9SK-UpcZS-7">
          <mxCell style="html=1;overflow=block;blockSpacing=1;whiteSpace=wrap;shape=display;whiteSpace=wrap;fontSize=16.7;fontColor=#333333;align=center;spacing=9;strokeColor=#5E5E5E;fillOpacity=100;rounded=1;absoluteArcSize=1;arcSize=9;fillColor=#c1e4f7;strokeWidth=2.3;" vertex="1" parent="SpkF6rD-bT0fngQKr083-1">
            <mxGeometry x="489" y="775" width="326" height="97" as="geometry" />
          </mxCell>
        </UserObject>
        <UserObject label="" lucidchartObjectId="rZCgVyohaM2." id="czTswIMVeAc9SK-UpcZS-8">
          <mxCell style="html=1;jettySize=18;whiteSpace=wrap;fontSize=13;strokeColor=#5E5E5E;strokeWidth=1.5;rounded=1;arcSize=12;edgeStyle=orthogonalEdgeStyle;startArrow=none;;endArrow=block;endFill=1;;exitX=0.5;exitY=1.012;exitPerimeter=0;entryX=0.5;entryY=-0.02;entryPerimeter=0;" edge="1" parent="SpkF6rD-bT0fngQKr083-1" source="czTswIMVeAc9SK-UpcZS-7" target="czTswIMVeAc9SK-UpcZS-9">
            <mxGeometry width="100" height="100" relative="1" as="geometry">
              <Array as="points" />
            </mxGeometry>
          </mxCell>
        </UserObject>
        <UserObject label="Fin" lucidchartObjectId="rZCg4.m~KNoU" id="czTswIMVeAc9SK-UpcZS-9">
          <mxCell style="html=1;overflow=block;blockSpacing=1;whiteSpace=wrap;rounded=1;arcSize=50;whiteSpace=wrap;fontSize=16.7;fontColor=#333333;fontStyle=1;align=center;spacing=3.8;strokeColor=#5E5E5E;fillOpacity=100;fillColor=#f9d2de;strokeWidth=2.3;" vertex="1" parent="SpkF6rD-bT0fngQKr083-1">
            <mxGeometry x="335" y="940" width="169" height="56" as="geometry" />
          </mxCell>
        </UserObject>
        <UserObject label="" lucidchartObjectId="rZCgyk6k.0QO" id="czTswIMVeAc9SK-UpcZS-10">
          <mxCell style="html=1;jettySize=18;whiteSpace=wrap;fontSize=13;strokeColor=#5E5E5E;strokeWidth=1.5;rounded=1;arcSize=12;edgeStyle=orthogonalEdgeStyle;startArrow=none;;endArrow=block;endFill=1;;exitX=0.503;exitY=1.013;exitPerimeter=0;entryX=0.399;entryY=-0.019;entryPerimeter=0;" edge="1" parent="SpkF6rD-bT0fngQKr083-1" source="czTswIMVeAc9SK-UpcZS-5" target="czTswIMVeAc9SK-UpcZS-11">
            <mxGeometry width="100" height="100" relative="1" as="geometry">
              <Array as="points" />
            </mxGeometry>
          </mxCell>
        </UserObject>
        <UserObject label="Cal1,Cal2,Cal3" lucidchartObjectId="rZCgYJEzzVbc" id="czTswIMVeAc9SK-UpcZS-11">
          <mxCell style="html=1;overflow=block;blockSpacing=1;whiteSpace=wrap;shape=parallelogram;perimeter=parallelogramPerimeter;anchorPointDirection=0;whiteSpace=wrap;fontSize=16.7;fontColor=#333333;align=center;spacing=3.8;strokeColor=#5E5E5E;fillOpacity=100;rounded=1;absoluteArcSize=1;arcSize=9;fillColor=#ffdba9;strokeWidth=2.3;" vertex="1" parent="SpkF6rD-bT0fngQKr083-1">
            <mxGeometry x="286" y="460" width="244" height="60" as="geometry" />
          </mxCell>
        </UserObject>
        <UserObject label="" lucidchartObjectId="rZCgGOKAPjba" id="czTswIMVeAc9SK-UpcZS-12">
          <mxCell style="html=1;jettySize=18;whiteSpace=wrap;fontSize=13.3;fontColor=#333333;fontStyle=1;align=center;strokeColor=#5E5E5E;strokeWidth=1.5;rounded=1;arcSize=12;edgeStyle=orthogonalEdgeStyle;startArrow=none;;endArrow=block;endFill=1;;exitX=0.994;exitY=0.5;exitPerimeter=0;entryX=0.5;entryY=-0.012;entryPerimeter=0;" edge="1" parent="SpkF6rD-bT0fngQKr083-1" source="czTswIMVeAc9SK-UpcZS-6" target="czTswIMVeAc9SK-UpcZS-7">
            <mxGeometry width="100" height="100" relative="1" as="geometry">
              <Array as="points">
                <mxPoint x="652" y="741" />
              </Array>
            </mxGeometry>
          </mxCell>
        </UserObject>
        <mxCell id="czTswIMVeAc9SK-UpcZS-13" value="Sí" style="text;html=1;resizable=0;labelBackgroundColor=#ffffff;align=center;verticalAlign=middle;fontStyle=1;fontColor=#333333;;fontSize=13.3;" vertex="1" parent="czTswIMVeAc9SK-UpcZS-12">
          <mxGeometry relative="1" as="geometry" />
        </mxCell>
        <UserObject label="" lucidchartObjectId="I7Cg3Kcgtf1f" id="czTswIMVeAc9SK-UpcZS-14">
          <mxCell style="html=1;jettySize=18;whiteSpace=wrap;fontSize=13;strokeColor=#5E5E5E;strokeWidth=1.5;rounded=1;arcSize=12;edgeStyle=orthogonalEdgeStyle;startArrow=none;;endArrow=block;endFill=1;;exitX=0.494;exitY=1.019;exitPerimeter=0;entryX=0.5;entryY=-0.015;entryPerimeter=0;" edge="1" parent="SpkF6rD-bT0fngQKr083-1" source="czTswIMVeAc9SK-UpcZS-11" target="czTswIMVeAc9SK-UpcZS-15">
            <mxGeometry width="100" height="100" relative="1" as="geometry">
              <Array as="points" />
            </mxGeometry>
          </mxCell>
        </UserObject>
        <UserObject label="Prom=(Cal1+Cal2+Cal3)/3" lucidchartObjectId="T7CgLb7ZJA41" id="czTswIMVeAc9SK-UpcZS-15">
          <mxCell style="html=1;overflow=block;blockSpacing=1;whiteSpace=wrap;;whiteSpace=wrap;fontSize=16.7;fontColor=#333333;fontStyle=1;align=center;spacing=9;strokeColor=#5E5E5E;fillOpacity=100;rounded=1;absoluteArcSize=1;arcSize=9;fillColor=#ffbbb1;strokeWidth=2.3;" vertex="1" parent="SpkF6rD-bT0fngQKr083-1">
            <mxGeometry x="220" y="550" width="373" height="77" as="geometry" />
          </mxCell>
        </UserObject>
        <UserObject label="" lucidchartObjectId="P8CgU5rk2IhY" id="czTswIMVeAc9SK-UpcZS-18">
          <mxCell style="html=1;jettySize=18;whiteSpace=wrap;fontSize=13;strokeColor=#5E5E5E;strokeWidth=1.5;rounded=1;arcSize=12;edgeStyle=orthogonalEdgeStyle;startArrow=none;;endArrow=block;endFill=1;;exitX=0.5;exitY=1.015;exitPerimeter=0;entryX=0.52;entryY=0.008;entryPerimeter=0;" edge="1" parent="SpkF6rD-bT0fngQKr083-1" source="czTswIMVeAc9SK-UpcZS-15" target="czTswIMVeAc9SK-UpcZS-6">
            <mxGeometry width="100" height="100" relative="1" as="geometry">
              <Array as="points" />
            </mxGeometry>
          </mxCell>
        </UserObject>
        <UserObject label="" lucidchartObjectId="j9CgK5pVXGD2" id="czTswIMVeAc9SK-UpcZS-19">
          <mxCell style="html=1;jettySize=18;whiteSpace=wrap;fontSize=13.3;fontColor=#333333;fontStyle=1;align=center;strokeColor=#5E5E5E;strokeWidth=1.5;rounded=1;arcSize=12;edgeStyle=orthogonalEdgeStyle;startArrow=none;;endArrow=block;endFill=1;;exitX=0.006;exitY=0.5;exitPerimeter=0;entryX=0.5;entryY=-0.012;entryPerimeter=0;" edge="1" parent="SpkF6rD-bT0fngQKr083-1" source="czTswIMVeAc9SK-UpcZS-6" target="czTswIMVeAc9SK-UpcZS-21">
            <mxGeometry width="100" height="100" relative="1" as="geometry">
              <Array as="points">
                <mxPoint x="183" y="741" />
              </Array>
            </mxGeometry>
          </mxCell>
        </UserObject>
        <mxCell id="czTswIMVeAc9SK-UpcZS-20" value="no" style="text;html=1;resizable=0;labelBackgroundColor=#ffffff;align=center;verticalAlign=middle;fontStyle=1;fontColor=#333333;;fontSize=13.3;" vertex="1" parent="czTswIMVeAc9SK-UpcZS-19">
          <mxGeometry relative="1" as="geometry" />
        </mxCell>
        <UserObject label="&quot;Reprobó&quot;;" lucidchartObjectId="s9CgpID4guSh" id="czTswIMVeAc9SK-UpcZS-21">
          <mxCell style="html=1;overflow=block;blockSpacing=1;whiteSpace=wrap;shape=display;whiteSpace=wrap;fontSize=16.7;fontColor=#333333;align=center;spacing=9;strokeColor=#5E5E5E;fillOpacity=100;rounded=1;absoluteArcSize=1;arcSize=9;fillColor=#c1e4f7;strokeWidth=2.3;" vertex="1" parent="SpkF6rD-bT0fngQKr083-1">
            <mxGeometry x="20" y="775" width="326" height="97" as="geometry" />
          </mxCell>
        </UserObject>
        <UserObject label="" lucidchartObjectId="y9CgShri_h-i" id="czTswIMVeAc9SK-UpcZS-22">
          <mxCell style="html=1;jettySize=18;whiteSpace=wrap;fontSize=13;strokeColor=#5E5E5E;strokeWidth=1.5;rounded=1;arcSize=12;edgeStyle=orthogonalEdgeStyle;startArrow=none;;endArrow=block;endFill=1;;exitX=0.502;exitY=1.012;exitPerimeter=0;entryX=0.5;entryY=-0.02;entryPerimeter=0;" edge="1" parent="SpkF6rD-bT0fngQKr083-1" source="czTswIMVeAc9SK-UpcZS-21" target="czTswIMVeAc9SK-UpcZS-9">
            <mxGeometry width="100" height="100" relative="1" as="geometry">
              <Array as="points" />
            </mxGeometry>
          </mxCell>
        </UserObject>
        <mxCell id="ZXghujU3EFejiJ-SCdev-0" value="&lt;h1&gt;Planteamiento del problema&lt;span style=&quot;font-weight: normal ; font-size: 16.6667px ; color: rgb(51 , 51 , 51)&quot;&gt;&lt;br&gt;&lt;/span&gt;&lt;div style=&quot;font-weight: 400 ; display: flex ; justify-content: flex-start ; align-items: baseline ; font-size: 0px ; line-height: 1.25 ; margin-top: -2px&quot;&gt;&lt;span style=&quot;font-size: 16.7px ; color: rgb(51 , 51 , 51) ; font-weight: bold&quot;&gt;&lt;br&gt;&lt;/span&gt;&lt;/div&gt;&lt;div style=&quot;display: flex ; justify-content: flex-start ; align-items: baseline ; line-height: 1.25 ; margin-top: -2px&quot;&gt;&lt;font color=&quot;#333333&quot;&gt;&lt;span style=&quot;font-size: 16.7px ; font-weight: 400&quot;&gt;Realizar un algoritmo y diagrama de flujo en donde el usuario ingrese las calificaciones de los 3 parciales de la materia de química&amp;nbsp;(E), obtén&amp;nbsp;el promedio la calificación&amp;nbsp;mínima para aprobar es de 7, mostrar en pantalla si reprobó&amp;nbsp;o aprobó&amp;nbsp;(S).&lt;/span&gt;&lt;/font&gt;&lt;/div&gt;&lt;/h1&gt;" style="text;html=1;strokeColor=none;fillColor=none;spacing=5;spacingTop=-20;whiteSpace=wrap;overflow=hidden;rounded=0;" vertex="1" parent="SpkF6rD-bT0fngQKr083-1">
          <mxGeometry x="20" y="20" width="790" height="160" as="geometry" />
        </mxCell>
      </root>
    </mxGraphModel>
  </diagram>
  <diagram id="KcXxUUsBamEYLmxdBNYR" name="Condición Múltiple">
    <mxGraphModel dx="1422" dy="794" grid="1" gridSize="10" guides="1" tooltips="1" connect="1" arrows="1" fold="1" page="1" pageScale="1" pageWidth="827" pageHeight="1169" math="0" shadow="0">
      <root>
        <mxCell id="p2sdBau5LgHmH4ma6eGV-0" />
        <mxCell id="p2sdBau5LgHmH4ma6eGV-1" parent="p2sdBau5LgHmH4ma6eGV-0" />
        <mxCell id="L3PfxDLCz8UQRw3GFmEC-0" value="&lt;h1&gt;Planteamiento del problema&lt;span style=&quot;font-weight: normal ; font-size: 16.6667px ; color: rgb(51 , 51 , 51)&quot;&gt;&lt;br&gt;&lt;/span&gt;&lt;div style=&quot;font-weight: 400 ; display: flex ; justify-content: flex-start ; align-items: baseline ; font-size: 0px ; line-height: 1.25 ; margin-top: -2px&quot;&gt;&lt;span style=&quot;font-size: 16.7px ; color: rgb(51 , 51 , 51) ; font-weight: bold&quot;&gt;&lt;br&gt;&lt;/span&gt;&lt;/div&gt;&lt;div style=&quot;display: flex ; justify-content: flex-start ; align-items: baseline ; line-height: 1.25 ; margin-top: -2px&quot;&gt;&lt;span data-lucid-type=&quot;application/vnd.lucid.text&quot; data-lucid-content=&quot;{&amp;#34;t&amp;#34;:&amp;#34;Realizar un algoritmo y diagrama de flujo donde se solicite al usuario que ingrese un número entre 1 y 7  (E) y y de acuerdo al número valide y (P) muestre en pantalla el dia de la semana por ejemplo 1: Lunes, 2: Martes ......7: Domingo (S).&amp;#34;,&amp;#34;m&amp;#34;:[{&amp;#34;s&amp;#34;:0,&amp;#34;n&amp;#34;:&amp;#34;a&amp;#34;,&amp;#34;v&amp;#34;:&amp;#34;left&amp;#34;},{&amp;#34;s&amp;#34;:0,&amp;#34;n&amp;#34;:&amp;#34;s&amp;#34;,&amp;#34;v&amp;#34;:22.22222222222222,&amp;#34;e&amp;#34;:241},{&amp;#34;s&amp;#34;:0,&amp;#34;n&amp;#34;:&amp;#34;c&amp;#34;,&amp;#34;v&amp;#34;:&amp;#34;333333ff&amp;#34;,&amp;#34;e&amp;#34;:241}]}&quot;&gt;&lt;font color=&quot;#333333&quot;&gt;&lt;span style=&quot;font-size: 16.6667px ; font-weight: 400&quot;&gt;Realizar un algoritmo y diagrama de flujo donde se solicite al usuario que ingrese un número entre 1 y 7  (E) y y de acuerdo al número valide y (P) muestre en pantalla el día&amp;nbsp;de la semana por ejemplo 1: Lunes, 2: Martes ......7: Domingo (S).&lt;/span&gt;&lt;/font&gt;&lt;/span&gt;&lt;br&gt;&lt;/div&gt;&lt;/h1&gt;" style="text;html=1;strokeColor=none;fillColor=none;spacing=5;spacingTop=-20;whiteSpace=wrap;overflow=hidden;rounded=0;" parent="p2sdBau5LgHmH4ma6eGV-1" vertex="1">
          <mxGeometry x="20" y="20" width="790" height="150" as="geometry" />
        </mxCell>
        <UserObject label="Inicio" lucidchartObjectId="s~Cge5IJ9F7G" id="R5DzpwIB-CwJxDivBn1j-0">
          <mxCell style="html=1;overflow=block;blockSpacing=1;whiteSpace=wrap;rounded=1;arcSize=50;whiteSpace=wrap;fontSize=16.7;fontColor=#333333;fontStyle=1;align=center;spacing=3.8;strokeColor=#5e5e5e;strokeOpacity=100;fillOpacity=100;fillColor=#f9d2de;strokeWidth=2.3;" parent="p2sdBau5LgHmH4ma6eGV-1" vertex="1">
            <mxGeometry x="318" y="150" width="141" height="56" as="geometry" />
          </mxCell>
        </UserObject>
        <UserObject label="" lucidchartObjectId="s~CggQltj46E" id="R5DzpwIB-CwJxDivBn1j-1">
          <mxCell style="html=1;jettySize=18;whiteSpace=wrap;fontSize=13;strokeColor=#5E5E5E;strokeWidth=1.5;rounded=1;arcSize=12;edgeStyle=orthogonalEdgeStyle;startArrow=none;;endArrow=block;endFill=1;;exitX=0.5;exitY=1.02;exitPerimeter=0;entryX=0.5;entryY=-0.036;entryPerimeter=0;" parent="p2sdBau5LgHmH4ma6eGV-1" source="R5DzpwIB-CwJxDivBn1j-0" target="R5DzpwIB-CwJxDivBn1j-2" edge="1">
            <mxGeometry width="100" height="100" relative="1" as="geometry">
              <Array as="points" />
            </mxGeometry>
          </mxCell>
        </UserObject>
        <UserObject label="&lt;div style=&quot;display: flex ; justify-content: center ; text-align: center ; align-items: baseline ; font-size: 0 ; line-height: 1.25 ; margin-top: -2px&quot;&gt;&lt;span&gt;&lt;span style=&quot;font-size: 16.7px ; color: #333333 ; font-weight: bold&quot;&gt;Definir&lt;/span&gt;&lt;span style=&quot;font-size: 16.7px ; color: #333333&quot;&gt;&amp;nbsp;dia &lt;/span&gt;&lt;span style=&quot;font-size: 16.7px ; color: #333333 ; font-weight: bold&quot;&gt;como Entero;&lt;/span&gt;&lt;/span&gt;&lt;/div&gt;" lucidchartObjectId="s~CgaDGcX5MQ" id="R5DzpwIB-CwJxDivBn1j-2">
          <mxCell style="html=1;overflow=block;blockSpacing=1;whiteSpace=wrap;;whiteSpace=wrap;fontSize=13;spacing=9;strokeColor=#5E5E5E;fillOpacity=100;rounded=1;absoluteArcSize=1;arcSize=9;fillColor=#ffbbb1;strokeWidth=2.3;" parent="p2sdBau5LgHmH4ma6eGV-1" vertex="1">
            <mxGeometry x="246" y="234" width="289" height="32" as="geometry" />
          </mxCell>
        </UserObject>
        <UserObject label="" lucidchartObjectId="s~Cg2sgyYpQn" id="R5DzpwIB-CwJxDivBn1j-3">
          <mxCell style="html=1;jettySize=18;whiteSpace=wrap;fontSize=13;strokeColor=#5E5E5E;strokeWidth=1.5;rounded=1;arcSize=12;edgeStyle=orthogonalEdgeStyle;startArrow=none;;endArrow=block;endFill=1;;exitX=0.5;exitY=1.036;exitPerimeter=0;entryX=0.5;entryY=-0.019;entryPerimeter=0;" parent="p2sdBau5LgHmH4ma6eGV-1" source="R5DzpwIB-CwJxDivBn1j-2" target="R5DzpwIB-CwJxDivBn1j-4" edge="1">
            <mxGeometry width="100" height="100" relative="1" as="geometry">
              <Array as="points" />
            </mxGeometry>
          </mxCell>
        </UserObject>
        <UserObject label="&quot;Ingrese un número entero entre 1 y 7:&quot;" lucidchartObjectId="s~Cgd9yBQeq1" id="R5DzpwIB-CwJxDivBn1j-4">
          <mxCell style="html=1;overflow=block;blockSpacing=1;whiteSpace=wrap;shape=display;whiteSpace=wrap;fontSize=16.7;fontColor=#333333;align=center;spacing=3.8;strokeColor=#5E5E5E;fillOpacity=100;rounded=1;absoluteArcSize=1;arcSize=9;fillColor=#c1e4f7;strokeWidth=2.3;" parent="p2sdBau5LgHmH4ma6eGV-1" vertex="1">
            <mxGeometry x="160" y="294" width="460" height="60" as="geometry" />
          </mxCell>
        </UserObject>
        <UserObject label="" lucidchartObjectId="s~Cg-anmsq1F" id="R5DzpwIB-CwJxDivBn1j-5">
          <mxCell style="html=1;jettySize=18;whiteSpace=wrap;fontSize=13;strokeColor=#5E5E5E;strokeWidth=1.5;rounded=1;arcSize=12;edgeStyle=orthogonalEdgeStyle;startArrow=none;;endArrow=block;endFill=1;;exitX=0.503;exitY=1.019;exitPerimeter=0;entryX=0.401;entryY=-0.025;entryPerimeter=0;" parent="p2sdBau5LgHmH4ma6eGV-1" source="R5DzpwIB-CwJxDivBn1j-4" target="R5DzpwIB-CwJxDivBn1j-6" edge="1">
            <mxGeometry width="100" height="100" relative="1" as="geometry">
              <Array as="points" />
            </mxGeometry>
          </mxCell>
        </UserObject>
        <UserObject label="dia" lucidchartObjectId="s~CgS7eCDtO9" id="R5DzpwIB-CwJxDivBn1j-6">
          <mxCell style="html=1;overflow=block;blockSpacing=1;whiteSpace=wrap;shape=parallelogram;perimeter=parallelogramPerimeter;anchorPointDirection=0;whiteSpace=wrap;fontSize=16.7;fontColor=#333333;align=center;spacing=3.8;strokeColor=#5E5E5E;fillOpacity=100;rounded=1;absoluteArcSize=1;arcSize=9;fillColor=#ffdba9;strokeWidth=2.3;" parent="p2sdBau5LgHmH4ma6eGV-1" vertex="1">
            <mxGeometry x="329" y="384" width="154" height="45" as="geometry" />
          </mxCell>
        </UserObject>
        <UserObject label="" lucidchartObjectId="s~Cgo_Po82zv" id="R5DzpwIB-CwJxDivBn1j-7">
          <mxCell style="html=1;jettySize=18;whiteSpace=wrap;fontSize=13;strokeColor=#5E5E5E;strokeWidth=1.5;rounded=1;arcSize=12;edgeStyle=orthogonalEdgeStyle;startArrow=none;;endArrow=block;endFill=1;;exitX=0.486;exitY=1.025;exitPerimeter=0;entryX=0.5;entryY=-0.002;entryPerimeter=0;" parent="p2sdBau5LgHmH4ma6eGV-1" source="R5DzpwIB-CwJxDivBn1j-6" target="R5DzpwIB-CwJxDivBn1j-8" edge="1">
            <mxGeometry width="100" height="100" relative="1" as="geometry">
              <Array as="points" />
            </mxGeometry>
          </mxCell>
        </UserObject>
        <mxCell id="R5DzpwIB-CwJxDivBn1j-54" style="edgeStyle=orthogonalEdgeStyle;rounded=0;orthogonalLoop=1;jettySize=auto;html=1;entryX=0;entryY=0;entryDx=62.5;entryDy=0;entryPerimeter=0;" parent="p2sdBau5LgHmH4ma6eGV-1" source="R5DzpwIB-CwJxDivBn1j-8" target="R5DzpwIB-CwJxDivBn1j-53" edge="1">
          <mxGeometry relative="1" as="geometry">
            <Array as="points">
              <mxPoint x="404" y="600" />
              <mxPoint x="763" y="600" />
            </Array>
          </mxGeometry>
        </mxCell>
        <mxCell id="R5DzpwIB-CwJxDivBn1j-66" style="edgeStyle=orthogonalEdgeStyle;rounded=0;orthogonalLoop=1;jettySize=auto;html=1;" parent="p2sdBau5LgHmH4ma6eGV-1" source="R5DzpwIB-CwJxDivBn1j-8" target="R5DzpwIB-CwJxDivBn1j-17" edge="1">
          <mxGeometry relative="1" as="geometry">
            <Array as="points">
              <mxPoint x="404" y="600" />
              <mxPoint x="475" y="600" />
            </Array>
          </mxGeometry>
        </mxCell>
        <mxCell id="R5DzpwIB-CwJxDivBn1j-67" style="edgeStyle=orthogonalEdgeStyle;rounded=0;orthogonalLoop=1;jettySize=auto;html=1;" parent="p2sdBau5LgHmH4ma6eGV-1" source="R5DzpwIB-CwJxDivBn1j-8" target="R5DzpwIB-CwJxDivBn1j-18" edge="1">
          <mxGeometry relative="1" as="geometry">
            <Array as="points">
              <mxPoint x="404" y="600" />
              <mxPoint x="580" y="600" />
            </Array>
          </mxGeometry>
        </mxCell>
        <UserObject label="dia=" lucidchartObjectId="JgDgPx_8vWJ8" id="R5DzpwIB-CwJxDivBn1j-8">
          <mxCell style="html=1;overflow=block;blockSpacing=1;whiteSpace=wrap;rhombus;whiteSpace=wrap;fontSize=16.7;fontColor=#333333;align=center;spacing=3.8;strokeColor=#5E5E5E;fillOpacity=100;rounded=1;absoluteArcSize=1;arcSize=9;fillColor=#a3d977;strokeWidth=2.3;" parent="p2sdBau5LgHmH4ma6eGV-1" vertex="1">
            <mxGeometry x="311" y="459" width="186" height="81" as="geometry" />
          </mxCell>
        </UserObject>
        <UserObject label="" lucidchartObjectId="shDgm3JD1wWt" id="R5DzpwIB-CwJxDivBn1j-9">
          <mxCell style="html=1;jettySize=18;whiteSpace=wrap;fontSize=13.3;fontColor=#333333;fontStyle=1;align=center;strokeColor=#5E5E5E;strokeWidth=1.5;rounded=1;arcSize=12;edgeStyle=orthogonalEdgeStyle;startArrow=none;;endArrow=block;endFill=1;;exitX=0.5;exitY=1.002;exitPerimeter=0;entryX=0.5;entryY=-0.025;entryPerimeter=0;" parent="p2sdBau5LgHmH4ma6eGV-1" source="R5DzpwIB-CwJxDivBn1j-8" target="R5DzpwIB-CwJxDivBn1j-14" edge="1">
            <mxGeometry width="100" height="100" relative="1" as="geometry">
              <Array as="points">
                <mxPoint x="404" y="600" />
                <mxPoint x="55" y="600" />
              </Array>
            </mxGeometry>
          </mxCell>
        </UserObject>
        <mxCell id="R5DzpwIB-CwJxDivBn1j-10" value="Opción 1" style="text;html=1;resizable=0;labelBackgroundColor=#ffffff;align=center;verticalAlign=middle;fontStyle=1;fontColor=#333333;;fontSize=13.3;" parent="R5DzpwIB-CwJxDivBn1j-9" vertex="1">
          <mxGeometry x="0.7579271996043142" relative="1" as="geometry">
            <mxPoint x="5" y="20.53" as="offset" />
          </mxGeometry>
        </mxCell>
        <UserObject label="" lucidchartObjectId="QhDgK31VxZGD" id="R5DzpwIB-CwJxDivBn1j-11">
          <mxCell style="html=1;jettySize=18;whiteSpace=wrap;fontSize=13.3;fontColor=#333333;fontStyle=1;align=center;strokeColor=#5E5E5E;strokeWidth=1.5;rounded=1;arcSize=12;edgeStyle=orthogonalEdgeStyle;startArrow=none;;endArrow=block;endFill=1;;exitX=0.5;exitY=1.002;exitPerimeter=0;entryX=0.5;entryY=-0.025;entryPerimeter=0;" parent="p2sdBau5LgHmH4ma6eGV-1" source="R5DzpwIB-CwJxDivBn1j-8" target="R5DzpwIB-CwJxDivBn1j-13" edge="1">
            <mxGeometry width="100" height="100" relative="1" as="geometry">
              <Array as="points">
                <mxPoint x="404" y="600" />
                <mxPoint x="155" y="600" />
              </Array>
            </mxGeometry>
          </mxCell>
        </UserObject>
        <mxCell id="R5DzpwIB-CwJxDivBn1j-12" value="Opción 2" style="text;html=1;resizable=0;labelBackgroundColor=#ffffff;align=center;verticalAlign=middle;fontStyle=1;fontColor=#333333;;fontSize=13.3;" parent="R5DzpwIB-CwJxDivBn1j-11" vertex="1">
          <mxGeometry x="0.672482373694266" relative="1" as="geometry">
            <mxPoint y="28" as="offset" />
          </mxGeometry>
        </mxCell>
        <mxCell id="R5DzpwIB-CwJxDivBn1j-46" style="edgeStyle=orthogonalEdgeStyle;rounded=0;orthogonalLoop=1;jettySize=auto;html=1;entryX=0.5;entryY=0;entryDx=0;entryDy=0;" parent="p2sdBau5LgHmH4ma6eGV-1" source="R5DzpwIB-CwJxDivBn1j-13" target="R5DzpwIB-CwJxDivBn1j-44" edge="1">
          <mxGeometry relative="1" as="geometry">
            <Array as="points">
              <mxPoint x="170" y="800" />
              <mxPoint x="369" y="800" />
            </Array>
          </mxGeometry>
        </mxCell>
        <UserObject label="&quot;Martes&quot;;" lucidchartObjectId="ThDg4o1_zVjh" id="R5DzpwIB-CwJxDivBn1j-13">
          <mxCell style="html=1;overflow=block;blockSpacing=1;whiteSpace=wrap;shape=display;whiteSpace=wrap;fontSize=16.7;fontColor=#333333;align=center;spacing=9;strokeColor=#5E5E5E;fillOpacity=100;rounded=1;absoluteArcSize=1;arcSize=9;fillColor=#c1e4f7;strokeWidth=2.3;" parent="p2sdBau5LgHmH4ma6eGV-1" vertex="1">
            <mxGeometry x="110" y="670" width="90" height="50" as="geometry" />
          </mxCell>
        </UserObject>
        <mxCell id="R5DzpwIB-CwJxDivBn1j-45" style="edgeStyle=orthogonalEdgeStyle;rounded=0;orthogonalLoop=1;jettySize=auto;html=1;" parent="p2sdBau5LgHmH4ma6eGV-1" source="R5DzpwIB-CwJxDivBn1j-14" target="R5DzpwIB-CwJxDivBn1j-44" edge="1">
          <mxGeometry relative="1" as="geometry">
            <Array as="points">
              <mxPoint x="55" y="800" />
              <mxPoint x="369" y="800" />
            </Array>
          </mxGeometry>
        </mxCell>
        <UserObject label="&quot;Lunes&quot;;" lucidchartObjectId="6hDgW3xF5nPx" id="R5DzpwIB-CwJxDivBn1j-14">
          <mxCell style="html=1;overflow=block;blockSpacing=1;whiteSpace=wrap;shape=display;whiteSpace=wrap;fontSize=16.7;fontColor=#333333;align=center;spacing=9;strokeColor=#5E5E5E;fillOpacity=100;rounded=1;absoluteArcSize=1;arcSize=9;fillColor=#c1e4f7;strokeWidth=2.3;" parent="p2sdBau5LgHmH4ma6eGV-1" vertex="1">
            <mxGeometry x="10" y="670" width="90" height="50" as="geometry" />
          </mxCell>
        </UserObject>
        <mxCell id="R5DzpwIB-CwJxDivBn1j-47" style="edgeStyle=orthogonalEdgeStyle;rounded=0;orthogonalLoop=1;jettySize=auto;html=1;entryX=0.5;entryY=0;entryDx=0;entryDy=0;" parent="p2sdBau5LgHmH4ma6eGV-1" source="R5DzpwIB-CwJxDivBn1j-15" target="R5DzpwIB-CwJxDivBn1j-44" edge="1">
          <mxGeometry relative="1" as="geometry">
            <Array as="points">
              <mxPoint x="261" y="800" />
              <mxPoint x="369" y="800" />
            </Array>
          </mxGeometry>
        </mxCell>
        <UserObject label="&quot;Miercoles&quot;;" lucidchartObjectId="RlDgoBg2R7Pk" id="R5DzpwIB-CwJxDivBn1j-15">
          <mxCell style="html=1;overflow=block;blockSpacing=1;whiteSpace=wrap;shape=display;whiteSpace=wrap;fontSize=16.7;fontColor=#333333;align=center;spacing=9;strokeColor=#5E5E5E;fillOpacity=100;rounded=1;absoluteArcSize=1;arcSize=9;fillColor=#c1e4f7;strokeWidth=2.3;" parent="p2sdBau5LgHmH4ma6eGV-1" vertex="1">
            <mxGeometry x="211" y="670" width="100" height="50" as="geometry" />
          </mxCell>
        </UserObject>
        <mxCell id="R5DzpwIB-CwJxDivBn1j-48" style="edgeStyle=orthogonalEdgeStyle;rounded=0;orthogonalLoop=1;jettySize=auto;html=1;entryX=0.5;entryY=0;entryDx=0;entryDy=0;" parent="p2sdBau5LgHmH4ma6eGV-1" source="R5DzpwIB-CwJxDivBn1j-16" target="R5DzpwIB-CwJxDivBn1j-44" edge="1">
          <mxGeometry relative="1" as="geometry" />
        </mxCell>
        <UserObject label="&quot;Jueves&quot;;" lucidchartObjectId="0lDg3MFX_6bQ" id="R5DzpwIB-CwJxDivBn1j-16">
          <mxCell style="html=1;overflow=block;blockSpacing=1;whiteSpace=wrap;shape=display;whiteSpace=wrap;fontSize=16.7;fontColor=#333333;align=center;spacing=9;strokeColor=#5E5E5E;fillOpacity=100;rounded=1;absoluteArcSize=1;arcSize=9;fillColor=#c1e4f7;strokeWidth=2.3;" parent="p2sdBau5LgHmH4ma6eGV-1" vertex="1">
            <mxGeometry x="318" y="672.5" width="101.5" height="47.5" as="geometry" />
          </mxCell>
        </UserObject>
        <mxCell id="R5DzpwIB-CwJxDivBn1j-49" style="edgeStyle=orthogonalEdgeStyle;rounded=0;orthogonalLoop=1;jettySize=auto;html=1;entryX=0.5;entryY=0;entryDx=0;entryDy=0;" parent="p2sdBau5LgHmH4ma6eGV-1" source="R5DzpwIB-CwJxDivBn1j-17" target="R5DzpwIB-CwJxDivBn1j-44" edge="1">
          <mxGeometry relative="1" as="geometry">
            <Array as="points">
              <mxPoint x="475" y="800" />
              <mxPoint x="369" y="800" />
            </Array>
          </mxGeometry>
        </mxCell>
        <UserObject label="&quot;Viernes&quot;;" lucidchartObjectId="~lDgQ7px.BWT" id="R5DzpwIB-CwJxDivBn1j-17">
          <mxCell style="html=1;overflow=block;blockSpacing=1;whiteSpace=wrap;shape=display;whiteSpace=wrap;fontSize=16.7;fontColor=#333333;align=center;spacing=9;strokeColor=#5E5E5E;fillOpacity=100;rounded=1;absoluteArcSize=1;arcSize=9;fillColor=#c1e4f7;strokeWidth=2.3;" parent="p2sdBau5LgHmH4ma6eGV-1" vertex="1">
            <mxGeometry x="430" y="671.25" width="90" height="48.75" as="geometry" />
          </mxCell>
        </UserObject>
        <mxCell id="R5DzpwIB-CwJxDivBn1j-50" style="edgeStyle=orthogonalEdgeStyle;rounded=0;orthogonalLoop=1;jettySize=auto;html=1;entryX=0.5;entryY=0;entryDx=0;entryDy=0;" parent="p2sdBau5LgHmH4ma6eGV-1" source="R5DzpwIB-CwJxDivBn1j-18" target="R5DzpwIB-CwJxDivBn1j-44" edge="1">
          <mxGeometry relative="1" as="geometry">
            <Array as="points">
              <mxPoint x="585" y="800" />
              <mxPoint x="369" y="800" />
            </Array>
          </mxGeometry>
        </mxCell>
        <UserObject label="&quot;Sabado&quot;;" lucidchartObjectId="kmDg9cGz8lJ~" id="R5DzpwIB-CwJxDivBn1j-18">
          <mxCell style="html=1;overflow=block;blockSpacing=1;whiteSpace=wrap;shape=display;whiteSpace=wrap;fontSize=16.7;fontColor=#333333;align=center;spacing=9;strokeColor=#5E5E5E;fillOpacity=100;rounded=1;absoluteArcSize=1;arcSize=9;fillColor=#c1e4f7;strokeWidth=2.3;" parent="p2sdBau5LgHmH4ma6eGV-1" vertex="1">
            <mxGeometry x="535" y="672.5" width="90" height="50" as="geometry" />
          </mxCell>
        </UserObject>
        <mxCell id="R5DzpwIB-CwJxDivBn1j-51" style="edgeStyle=orthogonalEdgeStyle;rounded=0;orthogonalLoop=1;jettySize=auto;html=1;" parent="p2sdBau5LgHmH4ma6eGV-1" source="R5DzpwIB-CwJxDivBn1j-19" target="R5DzpwIB-CwJxDivBn1j-44" edge="1">
          <mxGeometry relative="1" as="geometry">
            <Array as="points">
              <mxPoint x="690" y="800" />
              <mxPoint x="369" y="800" />
            </Array>
          </mxGeometry>
        </mxCell>
        <UserObject label="&quot;Domingo&quot;;" lucidchartObjectId="xmDgMimCf~w7" id="R5DzpwIB-CwJxDivBn1j-19">
          <mxCell style="html=1;overflow=block;blockSpacing=1;whiteSpace=wrap;shape=display;whiteSpace=wrap;fontSize=16.7;fontColor=#333333;align=center;spacing=9;strokeColor=#5E5E5E;fillOpacity=100;rounded=1;absoluteArcSize=1;arcSize=9;fillColor=#c1e4f7;strokeWidth=2.3;" parent="p2sdBau5LgHmH4ma6eGV-1" vertex="1">
            <mxGeometry x="640" y="680" width="100" height="40" as="geometry" />
          </mxCell>
        </UserObject>
        <UserObject label="" lucidchartObjectId="xnDg~-b8w_Mh" id="R5DzpwIB-CwJxDivBn1j-20">
          <mxCell style="html=1;jettySize=18;whiteSpace=wrap;fontSize=13.3;fontColor=#333333;fontStyle=1;align=center;strokeColor=#5E5E5E;strokeWidth=1.5;rounded=1;arcSize=12;edgeStyle=orthogonalEdgeStyle;startArrow=none;;endArrow=block;endFill=1;;exitX=0.5;exitY=1.002;exitPerimeter=0;entryX=0.5;entryY=-0.025;entryPerimeter=0;" parent="p2sdBau5LgHmH4ma6eGV-1" source="R5DzpwIB-CwJxDivBn1j-8" target="R5DzpwIB-CwJxDivBn1j-15" edge="1">
            <mxGeometry width="100" height="100" relative="1" as="geometry">
              <Array as="points">
                <mxPoint x="404" y="600" />
                <mxPoint x="261" y="600" />
              </Array>
            </mxGeometry>
          </mxCell>
        </UserObject>
        <mxCell id="R5DzpwIB-CwJxDivBn1j-21" value="Opción 3" style="text;html=1;resizable=0;labelBackgroundColor=#ffffff;align=center;verticalAlign=middle;fontStyle=1;fontColor=#333333;;fontSize=13.3;" parent="R5DzpwIB-CwJxDivBn1j-20" vertex="1">
          <mxGeometry x="0.4484516598713506" relative="1" as="geometry">
            <mxPoint x="-6.170000000000002" y="35" as="offset" />
          </mxGeometry>
        </mxCell>
        <UserObject label="" lucidchartObjectId="ZnDg5sejUXTM" id="R5DzpwIB-CwJxDivBn1j-22">
          <mxCell style="html=1;jettySize=18;whiteSpace=wrap;fontSize=13.3;fontColor=#333333;fontStyle=1;align=center;strokeColor=#5E5E5E;strokeWidth=1.5;rounded=1;arcSize=12;edgeStyle=orthogonalEdgeStyle;startArrow=none;;endArrow=block;endFill=1;;exitX=0.5;exitY=1.002;exitPerimeter=0;entryX=0.483;entryY=-0.025;entryPerimeter=0;" parent="p2sdBau5LgHmH4ma6eGV-1" source="R5DzpwIB-CwJxDivBn1j-8" target="R5DzpwIB-CwJxDivBn1j-16" edge="1">
            <mxGeometry width="100" height="100" relative="1" as="geometry">
              <Array as="points">
                <mxPoint x="404" y="600" />
                <mxPoint x="367" y="600" />
              </Array>
            </mxGeometry>
          </mxCell>
        </UserObject>
        <mxCell id="R5DzpwIB-CwJxDivBn1j-23" value=" Opción 4" style="text;html=1;resizable=0;labelBackgroundColor=#ffffff;align=center;verticalAlign=middle;fontStyle=1;fontColor=#333333;;fontSize=13.3;" parent="R5DzpwIB-CwJxDivBn1j-22" vertex="1">
          <mxGeometry x="-0.3478627632146255" relative="1" as="geometry">
            <mxPoint x="-34" y="34.839999999999996" as="offset" />
          </mxGeometry>
        </mxCell>
        <mxCell id="R5DzpwIB-CwJxDivBn1j-56" style="edgeStyle=orthogonalEdgeStyle;rounded=0;orthogonalLoop=1;jettySize=auto;html=1;exitX=0;exitY=0;exitDx=0;exitDy=0;" parent="R5DzpwIB-CwJxDivBn1j-22" source="R5DzpwIB-CwJxDivBn1j-23" target="R5DzpwIB-CwJxDivBn1j-23" edge="1">
          <mxGeometry relative="1" as="geometry" />
        </mxCell>
        <mxCell id="R5DzpwIB-CwJxDivBn1j-59" style="edgeStyle=orthogonalEdgeStyle;rounded=0;orthogonalLoop=1;jettySize=auto;html=1;exitX=0;exitY=0;exitDx=0;exitDy=0;" parent="R5DzpwIB-CwJxDivBn1j-22" source="R5DzpwIB-CwJxDivBn1j-23" target="R5DzpwIB-CwJxDivBn1j-23" edge="1">
          <mxGeometry relative="1" as="geometry" />
        </mxCell>
        <UserObject label="" lucidchartObjectId="dqDgVV7RT6Ea" id="R5DzpwIB-CwJxDivBn1j-28">
          <mxCell style="html=1;jettySize=18;whiteSpace=wrap;fontSize=13.3;fontColor=#333333;fontStyle=1;align=center;strokeColor=#5E5E5E;strokeWidth=1.5;rounded=1;arcSize=12;edgeStyle=orthogonalEdgeStyle;startArrow=none;;endArrow=block;endFill=1;;exitX=0.5;exitY=1.002;exitPerimeter=0;entryX=0.5;entryY=-0.025;entryPerimeter=0;" parent="p2sdBau5LgHmH4ma6eGV-1" source="R5DzpwIB-CwJxDivBn1j-8" target="R5DzpwIB-CwJxDivBn1j-19" edge="1">
            <mxGeometry width="100" height="100" relative="1" as="geometry">
              <Array as="points">
                <mxPoint x="404" y="600" />
                <mxPoint x="690" y="600" />
              </Array>
            </mxGeometry>
          </mxCell>
        </UserObject>
        <mxCell id="R5DzpwIB-CwJxDivBn1j-29" value="Opción 7" style="text;html=1;resizable=0;labelBackgroundColor=#ffffff;align=center;verticalAlign=middle;fontStyle=1;fontColor=#333333;;fontSize=13.3;" parent="R5DzpwIB-CwJxDivBn1j-28" vertex="1">
          <mxGeometry x="0.7564501396542516" relative="1" as="geometry">
            <mxPoint y="7.499999999999999" as="offset" />
          </mxGeometry>
        </mxCell>
        <mxCell id="R5DzpwIB-CwJxDivBn1j-55" style="edgeStyle=orthogonalEdgeStyle;rounded=0;orthogonalLoop=1;jettySize=auto;html=1;exitX=0;exitY=0;exitDx=0;exitDy=0;" parent="R5DzpwIB-CwJxDivBn1j-28" source="R5DzpwIB-CwJxDivBn1j-29" target="R5DzpwIB-CwJxDivBn1j-29" edge="1">
          <mxGeometry relative="1" as="geometry" />
        </mxCell>
        <UserObject label="Fin" lucidchartObjectId="s~Cge5IJ9F7G" id="R5DzpwIB-CwJxDivBn1j-44">
          <mxCell style="html=1;overflow=block;blockSpacing=1;whiteSpace=wrap;rounded=1;arcSize=50;whiteSpace=wrap;fontSize=16.7;fontColor=#333333;fontStyle=1;align=center;spacing=3.8;strokeColor=#5e5e5e;strokeOpacity=100;fillOpacity=100;fillColor=#f9d2de;strokeWidth=2.3;" parent="p2sdBau5LgHmH4ma6eGV-1" vertex="1">
            <mxGeometry x="298.25" y="850" width="141" height="56" as="geometry" />
          </mxCell>
        </UserObject>
        <mxCell id="R5DzpwIB-CwJxDivBn1j-68" style="edgeStyle=orthogonalEdgeStyle;rounded=0;orthogonalLoop=1;jettySize=auto;html=1;entryX=0.5;entryY=0;entryDx=0;entryDy=0;" parent="p2sdBau5LgHmH4ma6eGV-1" source="R5DzpwIB-CwJxDivBn1j-53" target="R5DzpwIB-CwJxDivBn1j-44" edge="1">
          <mxGeometry relative="1" as="geometry">
            <Array as="points">
              <mxPoint x="760" y="800" />
              <mxPoint x="369" y="800" />
            </Array>
          </mxGeometry>
        </mxCell>
        <UserObject label="&quot;No valido&quot;;" lucidchartObjectId="xmDgMimCf~w7" id="R5DzpwIB-CwJxDivBn1j-53">
          <mxCell style="html=1;overflow=block;blockSpacing=1;whiteSpace=wrap;shape=display;whiteSpace=wrap;fontSize=16.7;fontColor=#333333;align=center;spacing=9;strokeColor=#5E5E5E;fillOpacity=100;rounded=1;absoluteArcSize=1;arcSize=9;fillColor=#c1e4f7;strokeWidth=2.3;" parent="p2sdBau5LgHmH4ma6eGV-1" vertex="1">
            <mxGeometry x="700" y="740" width="120" height="50" as="geometry" />
          </mxCell>
        </UserObject>
        <mxCell id="R5DzpwIB-CwJxDivBn1j-42" value=" Opción 5" style="text;html=1;resizable=0;labelBackgroundColor=#ffffff;align=center;verticalAlign=middle;fontStyle=1;fontColor=#333333;;fontSize=13.3;" parent="p2sdBau5LgHmH4ma6eGV-1" vertex="1">
          <mxGeometry x="406" y="650.0020000000002" as="geometry">
            <mxPoint x="68" y="-20" as="offset" />
          </mxGeometry>
        </mxCell>
        <mxCell id="R5DzpwIB-CwJxDivBn1j-43" value="&lt;span style=&quot;color: rgb(51 , 51 , 51) ; font-family: &amp;#34;helvetica&amp;#34; ; font-size: 13px ; font-style: normal ; font-weight: 700 ; letter-spacing: normal ; text-align: center ; text-indent: 0px ; text-transform: none ; word-spacing: 0px ; background-color: rgb(255 , 255 , 255) ; display: inline ; float: none&quot;&gt;Opción 6&lt;/span&gt;" style="text;whiteSpace=wrap;html=1;" parent="p2sdBau5LgHmH4ma6eGV-1" vertex="1">
          <mxGeometry x="545" y="620" width="80" height="30" as="geometry" />
        </mxCell>
      </root>
    </mxGraphModel>
  </diagram>
</mxfile>
